<svg width="66" height="66" viewBox="0 0 66 66" fill="none" xmlns="http://www.w3.org/2000/svg">
<circle cx="33" cy="33" r="33" fill="#353535"/>
<g clip-path="url(#clip0_1180_5)">
<path d="M38.8992 21.8489C39.0373 21.5728 39.0077 21.2475 38.8203 21.0109L33.6342 14.2078C33.4864 14.0106 33.2497 13.8923 33.0032 13.8923C32.7567 13.8923 32.5201 14.0106 32.3624 14.2078L27.1763 21.0109C26.9889 21.2475 26.9692 21.5827 27.0974 21.8489C27.2354 22.125 27.5114 22.2926 27.8171 22.2926H29.1482V29.2633C32.5201 30.9295 35.2414 33.7001 36.8485 37.1016V22.2926H38.1795C38.4851 22.2926 38.7612 22.1151 38.8992 21.8489Z" fill="white"/>
<path d="M45.8812 27.1829C45.6446 26.9955 45.3094 26.9758 45.0432 27.104C44.7671 27.242 44.5995 27.518 44.5995 27.8237V29.1547H44.215C42.2135 29.1547 40.2613 29.5491 38.457 30.2984V39.2706C39.7092 37.7917 41.5727 36.8551 43.6431 36.8551H44.5995V38.1861C44.5995 38.4917 44.777 38.7678 45.0432 38.9058C45.3193 39.0439 45.6446 39.0143 45.8812 38.8269L52.6843 33.6408C52.8815 33.4929 52.9998 33.2563 52.9998 33.0098C52.9998 32.7535 52.8815 32.5267 52.6843 32.369L45.8812 27.1829Z" fill="white"/>
<path d="M13.3254 33.631L20.1284 38.817C20.3651 39.0044 20.7003 39.0339 20.9665 38.896C21.2426 38.7579 21.4102 38.4819 21.4102 38.1762V36.8452H22.3666C26.1132 36.8452 29.1499 39.8917 29.1499 43.6285V51.3091C29.1499 51.7527 29.5048 52.1077 29.9485 52.1077H36.0516C36.4952 52.1077 36.8502 51.7527 36.8502 51.3091V44.2102C36.8502 35.9085 30.0964 29.1548 21.7947 29.1548H21.4003V27.8238C21.4003 27.5181 21.2327 27.242 20.9566 27.104C20.6805 26.9758 20.3552 26.9956 20.1186 27.1829L13.3155 32.3689C13.1183 32.5168 13 32.7535 13 33.0098C13.0098 33.2563 13.1183 33.4831 13.3254 33.631Z" fill="white"/>
</g>
<defs>
<clipPath id="clip0_1180_5">
<rect width="40" height="40" fill="white" transform="translate(13 13)"/>
</clipPath>
</defs>
</svg>
