<svg width="66" height="66" viewBox="0 0 66 66" fill="none" xmlns="http://www.w3.org/2000/svg">
<circle cx="33" cy="33" r="33" fill="#353535"/>
<g clip-path="url(#clip0_1180_3)">
<path d="M32.7164 29.2681C35.3635 29.2681 37.6557 28.3187 39.5286 26.4456C41.4014 24.5727 42.3508 22.2811 42.3508 19.6338C42.3508 16.9873 41.4014 14.6954 39.5283 12.8219C37.6551 10.9494 35.3632 10 32.7164 10C30.069 10 27.7775 10.9494 25.9046 12.8223C24.0317 14.6951 23.082 16.987 23.082 19.6338C23.082 22.2811 24.0317 24.573 25.9049 26.4459C27.7781 28.3184 30.0699 29.2681 32.7164 29.2681Z" fill="white"/>
<path d="M49.5726 40.7579C49.5186 39.9785 49.4093 39.1283 49.2485 38.2305C49.0861 37.326 48.8771 36.4709 48.6268 35.6893C48.3683 34.8815 48.0168 34.0838 47.5822 33.3193C47.1312 32.5259 46.6014 31.835 46.0069 31.2664C45.3853 30.6716 44.6241 30.1934 43.744 29.8446C42.8669 29.4976 41.895 29.3218 40.8552 29.3218C40.4469 29.3218 40.052 29.4894 39.2894 29.9859C38.82 30.292 38.271 30.646 37.6582 31.0375C37.1342 31.3714 36.4244 31.6842 35.5476 31.9674C34.6922 32.2442 33.8237 32.3846 32.9664 32.3846C32.1092 32.3846 31.241 32.2442 30.3846 31.9674C29.5088 31.6845 28.799 31.3717 28.2756 31.0378C27.6686 30.65 27.1193 30.296 26.6429 29.9856C25.8812 29.4891 25.486 29.3215 25.0776 29.3215C24.0376 29.3215 23.0659 29.4976 22.1891 29.8449C21.3096 30.1931 20.5482 30.6713 19.926 31.2667C19.3318 31.8356 18.8017 32.5262 18.3513 33.3193C17.917 34.0838 17.5654 34.8812 17.3066 35.6896C17.0567 36.4712 16.8477 37.326 16.6853 38.2305C16.5245 39.1271 16.4152 39.9776 16.3612 40.7589C16.3081 41.5242 16.2812 42.3186 16.2812 43.1209C16.2812 45.2089 16.945 46.8993 18.2539 48.1459C19.5466 49.3761 21.2571 50.0002 23.3372 50.0002H42.5975C44.6776 50.0002 46.3875 49.3764 47.6805 48.1459C48.9897 46.9002 49.6534 45.2095 49.6534 43.1206C49.6531 42.3146 49.626 41.5197 49.5726 40.7579Z" fill="white"/>
</g>
<defs>
<clipPath id="clip0_1180_3">
<rect width="40" height="40" fill="white" transform="translate(13 10)"/>
</clipPath>
</defs>
</svg>
