<svg width="66" height="66" viewBox="0 0 66 66" fill="none" xmlns="http://www.w3.org/2000/svg">
<circle cx="33" cy="33" r="33" fill="#353535"/>
<g clip-path="url(#clip0_1180_2)">
<path d="M51.9123 42.356L46.3302 36.7738C44.3365 34.7802 40.9474 35.5778 40.15 38.1694C39.5519 39.9637 37.5583 40.9605 35.764 40.5617C31.7768 39.5649 26.394 34.3815 25.3972 30.1949C24.7991 28.4006 25.9953 26.407 27.7895 25.809C30.3812 25.0115 31.1787 21.6224 29.1851 19.6288L23.603 14.0466C22.0081 12.6511 19.6157 12.6511 18.2202 14.0466L14.4323 17.8345C10.6445 21.8217 14.8311 32.3879 24.201 41.7579C33.571 51.1279 44.1372 55.5139 48.1244 51.5266L51.9123 47.7387C53.3079 46.1438 53.3079 43.7515 51.9123 42.356Z" fill="white"/>
</g>
<defs>
<clipPath id="clip0_1180_2">
<rect width="40" height="40" fill="white" transform="translate(13 13)"/>
</clipPath>
</defs>
</svg>
