<svg width="99" height="98" viewBox="0 0 99 98" fill="none" xmlns="http://www.w3.org/2000/svg">
<path d="M76.3706 25.2015C62.3255 25.2015 53.0307 36.5689 44.8305 46.6003C37.8245 55.1697 31.2086 63.2617 23.1507 63.2617C14.7752 63.2617 9.6329 54.7405 9.6329 48.6318C9.6329 42.9679 15.2741 34.7371 24.1155 34.7371C32.6947 34.7371 37.1641 41.534 37.3895 41.8824C38.7794 44.1089 41.7305 44.8096 43.9909 43.4448C46.2626 42.0749 46.9822 39.1412 45.5976 36.8925C45.3037 36.4163 38.2383 25.2021 24.1155 25.2021C9.90442 25.2021 0 37.5514 0 48.6324C0 60.0625 9.50768 72.7979 23.1501 72.7979C35.8026 72.7979 44.1992 62.5297 52.3176 52.5988C59.8278 43.4148 66.9222 34.7377 76.3706 34.7377C81.992 34.7377 85.6858 36.6257 87.6602 40.5046C89.3711 43.8708 89.3697 47.68 89.3684 48.9997C89.3684 49.7564 88.9644 53.5519 87.0941 56.9696C84.9615 60.8629 81.934 62.6752 77.5588 62.6752C68.7483 62.6752 63.9882 57.0062 62.1957 54.871C61.7298 54.3152 61.3943 53.9153 60.9462 53.5356C58.9283 51.8244 55.8862 52.0541 54.1543 54.0542C52.4844 55.9832 52.6452 58.851 54.4693 60.587C54.5563 60.6848 54.6611 60.8133 54.7857 60.9627C57.1219 63.7457 64.2255 72.2095 77.5568 72.2095C93.7595 72.2095 98.9993 56.5704 98.9993 48.9345C99.0007 44.0711 98.0807 39.7929 96.2618 36.216C93.7081 31.1928 88.1828 25.2015 76.3706 25.2015Z" fill="white"/>
</svg>
