<svg width="95" height="95" viewBox="0 0 95 95" fill="none" xmlns="http://www.w3.org/2000/svg">
<path d="M49.5037 45.5857C49.4882 45.5694 49.4837 45.5477 49.4677 45.5317L33.5842 29.648V19.6677C33.5842 18.9282 33.2907 18.2217 32.7689 17.6997L16.0698 0.81521C15.2762 0.0218139 14.0776 -0.220139 13.0365 0.211999C11.9955 0.641353 11.3187 1.65796 11.3187 2.78312V11.1327H2.78353C1.65857 11.1325 0.641958 11.8092 0.212604 12.8503C-0.219534 13.8912 0.0196354 15.0873 0.816001 15.8836L17.7007 32.7682C18.2227 33.2901 18.9292 33.5836 19.6684 33.5836H29.6488L45.5323 49.4671C45.5483 49.4831 45.57 49.4876 45.5863 49.5031C46.6699 50.5374 48.3159 50.5511 49.4139 49.5031C50.5703 48.3995 50.5443 46.6758 49.5037 45.5857Z" fill="url(#paint0_linear_503_77)"/>
<path d="M47.5015 0.00012207C40.38 0.00012207 33.6467 1.81198 27.5834 4.64212L36.1212 13.1799C39.7044 11.9883 43.5235 11.3185 47.5016 11.3185C67.4514 11.3183 83.6828 27.5499 83.6828 47.4996C83.6828 67.4494 67.4514 83.681 47.5015 83.681C27.5515 83.681 11.3201 67.4496 11.3201 47.4996C11.3201 43.5215 11.9901 39.7024 13.1815 36.1191L4.64377 27.5814C1.814 33.6449 0.00195312 40.3782 0.00195312 47.4996C0.00195312 73.5891 21.412 94.9993 47.5015 94.9993C73.591 94.9993 95.0012 73.5891 95.0012 47.4996C95.0012 21.4101 73.5913 0.00012207 47.5015 0.00012207Z" fill="url(#paint1_linear_503_77)"/>
<path d="M47.5017 22.451C44.5599 22.451 41.7767 23.0541 39.1521 23.9898V27.3434L45.5863 33.7775C46.2183 33.6892 46.8458 33.5838 47.5017 33.5838C55.1746 33.5838 61.4177 39.8269 61.4177 47.4998C61.4177 55.1727 55.1746 61.4158 47.5017 61.4158C39.8288 61.4158 33.5857 55.1727 33.5857 47.4998C33.5857 46.8437 33.6911 46.2162 33.7794 45.5844L27.3454 39.15H23.9919C23.0562 41.7746 22.4531 44.5578 22.4531 47.4996C22.4531 61.3123 33.6893 72.5482 47.5017 72.5482C61.3141 72.5482 72.5505 61.3123 72.5505 47.4996C72.5505 33.687 61.3143 22.451 47.5017 22.451Z" fill="url(#paint2_linear_503_77)"/>
<defs>
<linearGradient id="paint0_linear_503_77" x1="49.7881" y1="21.8268" x2="23.0658" y2="23.3274" gradientUnits="userSpaceOnUse">
<stop stop-color="#BA25BD"/>
<stop offset="1" stop-color="#B62A7E"/>
</linearGradient>
<linearGradient id="paint1_linear_503_77" x1="94.0665" y1="41.2365" x2="43.5801" y2="44.0715" gradientUnits="userSpaceOnUse">
<stop stop-color="#BA25BD"/>
<stop offset="1" stop-color="#B62A7E"/>
</linearGradient>
<linearGradient id="paint2_linear_503_77" x1="72.0576" y1="44.1967" x2="45.4339" y2="45.6918" gradientUnits="userSpaceOnUse">
<stop stop-color="#BA25BD"/>
<stop offset="1" stop-color="#B62A7E"/>
</linearGradient>
</defs>
</svg>
