<svg xmlns="http://www.w3.org/2000/svg" width="46" height="47" viewBox="0 0 46 47" fill="none"><path fill-rule="evenodd" clip-rule="evenodd" d="M39.2979 6.83026C34.9737 2.42803 29.2228 0.00258178 23.0962 0C10.4717 0 0.197196 10.4473 0.192118 23.288C0.190425 27.3928 1.24496 31.3997 3.24936 34.9316L0 47L12.1418 43.7613C15.4874 45.617 19.2538 46.5949 23.0869 46.5961H23.0965C35.7196 46.5961 45.9952 36.1479 46 23.3067C46.0025 17.0834 43.6224 11.2322 39.2979 6.83026ZM23.0962 42.6629H23.0883C19.6725 42.6614 16.3224 41.728 13.3992 39.9646L12.7043 39.5449L5.4992 41.4669L7.42236 34.3237L6.96957 33.5913C5.0639 30.5093 4.05761 26.947 4.0593 23.2894C4.06325 12.6166 12.6033 3.9335 23.1038 3.9335C28.1886 3.93522 32.9684 5.95131 36.5625 9.61027C40.1566 13.2692 42.1348 18.1328 42.1331 23.3052C42.1286 33.9789 33.5891 42.6629 23.0962 42.6629ZM33.5383 28.165C32.9662 27.8735 30.1524 26.4662 29.6276 26.2717C29.1035 26.0775 28.7215 25.9808 28.3404 26.5631C27.9587 27.1455 26.8621 28.4565 26.5281 28.8446C26.1941 29.233 25.8606 29.2818 25.2882 28.9903C24.7158 28.6991 22.8719 28.0844 20.6858 26.1019C18.9847 24.5588 17.8362 22.6532 17.5022 22.0708C17.1688 21.4879 17.4994 21.2034 17.7533 20.8832C18.3728 20.1009 18.9932 19.2808 19.1839 18.8927C19.3749 18.5042 19.2792 18.1643 19.1359 17.8731C18.9932 17.582 17.8486 14.7176 17.3719 13.5521C16.907 12.4178 16.4355 12.571 16.084 12.5532C15.7506 12.5363 15.3689 12.5329 14.9872 12.5329C14.6058 12.5329 13.9857 12.6783 13.461 13.2612C12.9365 13.8438 11.4582 15.2515 11.4582 18.1158C11.4582 20.9802 13.5089 23.7473 13.795 24.1357C14.081 24.5241 17.8306 30.402 23.5713 32.9224C24.9367 33.5225 26.0025 33.8802 26.8339 34.1484C28.205 34.5914 29.4522 34.5288 30.4384 34.3791C31.5381 34.2118 33.8241 32.9711 34.3014 31.612C34.7782 30.2525 34.7782 29.0876 34.6348 28.8446C34.4921 28.6019 34.1104 28.4565 33.5383 28.165Z" fill="white"></path></svg>