<svg width="344" height="343" viewBox="0 0 344 343" fill="none" xmlns="http://www.w3.org/2000/svg">
<path d="M32.25 160.299C37.5654 160.299 42.7614 158.727 47.181 155.783C51.6005 152.838 55.0452 148.653 57.0793 143.757C59.1134 138.86 59.6456 133.472 58.6086 128.274C57.5716 123.076 55.012 118.301 51.2535 114.554C47.495 110.806 42.7063 108.254 37.4931 107.22C32.2798 106.186 26.8761 106.717 21.9654 108.745C17.0546 110.773 12.8573 114.208 9.90425 118.614C6.95119 123.021 5.375 128.202 5.375 133.502C5.375 140.609 8.20647 147.425 13.2465 152.45C15.7421 154.939 18.7048 156.912 21.9654 158.259C25.226 159.606 28.7207 160.299 32.25 160.299ZM32.25 117.424C35.4392 117.424 38.5568 118.367 41.2086 120.133C43.8603 121.9 45.9271 124.411 47.1476 127.349C48.368 130.287 48.6874 133.52 48.0652 136.639C47.443 139.758 45.9072 142.622 43.6521 144.871C41.397 147.119 38.5238 148.651 35.3958 149.271C32.2679 149.892 29.0257 149.573 26.0792 148.356C23.1328 147.139 20.6144 145.079 18.8426 142.434C17.0707 139.79 16.125 136.682 16.125 133.502C16.125 129.238 17.8239 125.148 20.8479 122.133C23.8719 119.118 27.9734 117.424 32.25 117.424Z" fill="url(#paint0_linear_986_14)"/>
<path d="M311.75 107.188C306.435 107.188 301.239 108.759 296.819 111.704C292.399 114.648 288.955 118.833 286.921 123.73C284.887 128.626 284.354 134.014 285.391 139.212C286.428 144.41 288.988 149.185 292.747 152.933C296.505 156.68 301.294 159.232 306.507 160.266C311.72 161.3 317.124 160.77 322.035 158.741C326.945 156.713 331.143 153.279 334.096 148.872C337.049 144.465 338.625 139.284 338.625 133.984C338.625 126.877 335.794 120.062 330.754 115.036C325.713 110.011 318.878 107.188 311.75 107.188ZM311.75 150.063C308.561 150.063 305.443 149.12 302.791 147.353C300.14 145.586 298.073 143.075 296.852 140.137C295.632 137.199 295.313 133.967 295.935 130.848C296.557 127.729 298.093 124.864 300.348 122.615C302.603 120.367 305.476 118.836 308.604 118.215C311.732 117.595 314.974 117.913 317.921 119.13C320.867 120.347 323.386 122.408 325.157 125.052C326.929 127.696 327.875 130.804 327.875 133.984C327.875 138.249 326.176 142.338 323.152 145.353C320.128 148.369 316.027 150.063 311.75 150.063Z" fill="url(#paint1_linear_986_14)"/>
<path d="M198.875 32.1563C198.875 26.8563 197.299 21.6754 194.346 17.2687C191.393 12.862 187.195 9.42737 182.285 7.39918C177.374 5.37099 171.97 4.84032 166.757 5.87428C161.544 6.90824 156.755 9.4604 152.997 13.208C149.238 16.9556 146.678 21.7304 145.641 26.9285C144.604 32.1265 145.137 37.5145 147.171 42.411C149.205 47.3075 152.649 51.4926 157.069 54.437C161.489 57.3815 166.685 58.9531 172 58.9531C179.128 58.9531 185.963 56.1299 191.004 51.1045C196.044 46.0791 198.875 39.2632 198.875 32.1563ZM172 48.2344C168.811 48.2344 165.693 47.2914 163.041 45.5247C160.39 43.758 158.323 41.247 157.102 38.3091C155.882 35.3712 155.563 32.1384 156.185 29.0196C156.807 25.9007 158.343 23.0359 160.598 20.7873C162.853 18.5387 165.726 17.0075 168.854 16.3871C171.982 15.7667 175.224 16.0851 178.171 17.302C181.117 18.5189 183.636 20.5797 185.407 23.2237C187.179 25.8678 188.125 28.9763 188.125 32.1563C188.125 36.4204 186.426 40.51 183.402 43.5252C180.378 46.5404 176.277 48.2344 172 48.2344Z" fill="url(#paint2_linear_986_14)"/>
<path d="M86 326.922C91.3154 326.922 96.5114 325.35 100.931 322.406C105.351 319.461 108.795 315.276 110.829 310.38C112.863 305.483 113.396 300.095 112.359 294.897C111.322 289.699 108.762 284.924 105.003 281.177C101.245 277.429 96.4563 274.877 91.2431 273.843C86.0298 272.809 80.6262 273.34 75.7154 275.368C70.8046 277.396 66.6073 280.831 63.6543 285.237C60.7012 289.644 59.125 294.825 59.125 300.125C59.125 307.232 61.9565 314.048 66.9965 319.073C72.0365 324.099 78.8723 326.922 86 326.922ZM86 284.047C89.1892 284.047 92.3068 284.99 94.9586 286.757C97.6103 288.523 99.6771 291.034 100.898 293.972C102.118 296.91 102.437 300.143 101.815 303.262C101.193 306.381 99.6572 309.245 97.4021 311.494C95.147 313.743 92.2738 315.274 89.1458 315.894C86.0179 316.515 82.7757 316.196 79.8292 314.979C76.8828 313.762 74.3644 311.702 72.5926 309.058C70.8207 306.414 69.875 303.305 69.875 300.125C69.875 295.861 71.5739 291.771 74.5979 288.756C77.6219 285.741 81.7234 284.047 86 284.047Z" fill="url(#paint3_linear_986_14)"/>
<path d="M284.875 300.125C284.875 294.825 283.299 289.644 280.346 285.237C277.393 280.831 273.195 277.396 268.285 275.368C263.374 273.34 257.97 272.809 252.757 273.843C247.544 274.877 242.755 277.429 238.997 281.177C235.238 284.924 232.678 289.699 231.641 294.897C230.604 300.095 231.137 305.483 233.171 310.38C235.205 315.276 238.649 319.461 243.069 322.406C247.489 325.35 252.685 326.922 258 326.922C265.128 326.922 271.963 324.099 277.004 319.073C282.044 314.048 284.875 307.232 284.875 300.125ZM258 316.203C254.811 316.203 251.693 315.26 249.041 313.493C246.39 311.727 244.323 309.216 243.102 306.278C241.882 303.34 241.563 300.107 242.185 296.988C242.807 293.869 244.343 291.005 246.598 288.756C248.853 286.508 251.726 284.976 254.854 284.356C257.982 283.735 261.224 284.054 264.171 285.271C267.117 286.488 269.636 288.548 271.407 291.192C273.179 293.837 274.125 296.945 274.125 300.125C274.125 304.389 272.426 308.479 269.402 311.494C266.378 314.509 262.277 316.203 258 316.203Z" fill="url(#paint4_linear_986_14)"/>
<path d="M213.388 309.986C193.353 316.12 172.194 317.695 151.468 314.595L160.82 309.933L155.875 300.125L131.849 312.184C131.086 312.578 130.43 313.149 129.934 313.848C129.439 314.547 129.118 315.355 129 316.203C128.858 317.014 128.905 317.847 129.138 318.637C129.371 319.427 129.784 320.153 130.344 320.759L148.673 340.374L156.52 333.085L149.049 325.046C156.638 326.268 164.312 326.896 172 326.922C187.124 326.943 202.165 324.685 216.613 320.223L213.388 309.986Z" fill="url(#paint5_linear_986_14)"/>
<path d="M293.636 245.406L292.239 235.33L281.489 236.777L285.09 263.574C285.205 264.403 285.513 265.193 285.989 265.881C286.465 266.57 287.096 267.138 287.831 267.54C288.61 268.007 289.503 268.248 290.411 268.237C291.172 268.233 291.923 268.069 292.615 267.754L317.179 257.036L312.771 247.228L302.451 251.837C315.654 229.047 322.571 203.178 322.5 176.859H311.75C311.774 200.888 305.531 224.509 293.636 245.406Z" fill="url(#paint6_linear_986_14)"/>
<path d="M49.3962 89.8766L58.1037 96.0935C71.8872 76.7719 90.3875 61.2768 111.854 51.0748L108.037 60.0785L118.25 64.3124L129 39.6593C129.32 38.8936 129.458 38.0642 129.402 37.2365C129.346 36.4088 129.098 35.6054 128.678 34.8895C128.234 34.0999 127.597 33.4351 126.827 32.9572C126.056 32.4793 125.176 32.2037 124.27 32.1562L97.395 28.9941L96.1587 39.7129L107.876 41.1063C84.4895 52.0602 64.3433 68.8615 49.3962 89.8766Z" fill="url(#paint7_linear_986_14)"/>
<path d="M290.25 96.4688C291.608 96.4641 292.914 95.9471 293.905 95.0217C294.517 94.4629 294.99 93.7705 295.288 92.9988C295.587 92.2271 295.702 91.3969 295.625 90.5734L292.884 63.7766L282.134 64.902L283.263 75.6208C265.159 55.9402 242.141 41.4037 216.559 33.4961L213.441 43.7325C237.079 51.1469 258.33 64.6629 275.039 82.9095L264.289 80.9802L262.354 91.6989L288.799 96.5223L290.25 96.4688Z" fill="url(#paint8_linear_986_14)"/>
<path d="M49.3963 197.761L30.745 178.521C30.1686 177.923 29.4607 177.466 28.6773 177.187C27.8938 176.908 27.0561 176.814 26.23 176.913C25.3996 177.008 24.6028 177.295 23.903 177.751C23.2032 178.207 22.6196 178.819 22.1988 179.539L8.86877 202.799L18.2213 208.158L23.3275 199.262C26.8586 223.337 36.2724 246.178 50.74 265.772L59.3938 259.447C45.8628 241.086 37.0924 219.675 33.8625 197.118L41.6563 205.211L49.3963 197.761Z" fill="url(#paint9_linear_986_14)"/>
<path d="M118.25 171.5C118.25 181.424 121.014 191.153 126.234 199.603C131.454 208.054 138.924 214.893 147.813 219.359V238.492C147.813 244.888 150.361 251.022 154.897 255.545C159.433 260.068 165.585 262.609 172 262.609C178.415 262.609 184.567 260.068 189.103 255.545C193.639 251.022 196.188 244.888 196.188 238.492V219.359C204.729 215.067 211.967 208.581 217.156 200.569C222.344 192.557 225.294 183.31 225.701 173.781C226.109 164.253 223.959 154.789 219.474 146.366C214.988 137.943 208.33 130.865 200.186 125.864C192.042 120.863 182.707 118.12 173.145 117.916C163.582 117.713 154.138 120.058 145.788 124.709C137.438 129.36 130.483 136.148 125.643 144.373C120.802 152.598 118.25 161.963 118.25 171.5ZM185.438 238.492C185.438 242.045 184.022 245.453 181.502 247.966C178.982 250.479 175.564 251.89 172 251.89C168.436 251.89 165.018 250.479 162.498 247.966C159.978 245.453 158.563 242.045 158.563 238.492V230.453H185.438V238.492ZM172 128.625C181.922 128.627 191.539 132.05 199.218 138.315C206.898 144.58 212.169 153.3 214.136 162.996C216.104 172.693 214.648 182.771 210.015 191.519C205.382 200.268 197.857 207.15 188.716 210.998C187.745 211.408 186.916 212.095 186.333 212.972C185.75 213.848 185.438 214.877 185.438 215.929V219.734H177.375V198.296C177.367 197.246 177.049 196.221 176.461 195.349L162.701 174.715L170.71 176.698C171.557 176.907 172.443 176.907 173.29 176.698L182.75 174.394L178.074 182.218L187.426 187.578L198.176 168.82C198.758 167.906 199.049 166.838 199.01 165.756C198.971 164.674 198.605 163.63 197.959 162.759C197.313 161.889 196.418 161.235 195.392 160.881C194.366 160.528 193.257 160.493 192.21 160.781L172 166.14L151.79 160.781C150.74 160.516 149.634 160.574 148.617 160.947C147.6 161.32 146.72 161.991 146.093 162.871C145.48 163.763 145.152 164.818 145.152 165.899C145.152 166.98 145.48 168.035 146.093 168.927L166.625 199.904V219.734H158.563V215.929C158.562 214.877 158.25 213.848 157.667 212.972C157.084 212.095 156.255 211.408 155.284 210.998C146.143 207.15 138.618 200.268 133.985 191.519C129.352 182.771 127.896 172.693 129.864 162.996C131.831 153.3 137.102 144.58 144.782 138.315C152.461 132.05 162.078 128.627 172 128.625Z" fill="url(#paint10_linear_986_14)"/>
<path d="M236.5 166.141H252.625V176.859H236.5V166.141Z" fill="url(#paint11_linear_986_14)"/>
<path d="M91.375 166.141H107.5V176.859H91.375V166.141Z" fill="url(#paint12_linear_986_14)"/>
<path d="M213.766 122.192L225.169 110.823L232.77 118.403L221.368 129.772L213.766 122.192Z" fill="url(#paint13_linear_986_14)"/>
<path d="M111.158 224.597L122.56 213.228L130.161 220.807L118.759 232.176L111.158 224.597Z" fill="url(#paint14_linear_986_14)"/>
<path d="M213.786 220.787L221.388 213.208L232.79 224.577L225.188 232.156L213.786 220.787Z" fill="url(#paint15_linear_986_14)"/>
<path d="M111.138 118.424L118.739 110.845L130.141 122.213L122.54 129.793L111.138 118.424Z" fill="url(#paint16_linear_986_14)"/>
<path d="M166.625 91.1094H177.375V107.188H166.625V91.1094Z" fill="url(#paint17_linear_986_14)"/>
<defs>
<linearGradient id="paint0_linear_986_14" x1="59.125" y1="106.705" x2="0.370945" y2="112.909" gradientUnits="userSpaceOnUse">
<stop stop-color="#B62A7E"/>
<stop offset="1" stop-color="#D74A9E"/>
</linearGradient>
<linearGradient id="paint1_linear_986_14" x1="338.625" y1="107.187" x2="279.871" y2="113.392" gradientUnits="userSpaceOnUse">
<stop stop-color="#B62A7E"/>
<stop offset="1" stop-color="#D74A9E"/>
</linearGradient>
<linearGradient id="paint2_linear_986_14" x1="198.875" y1="5.35938" x2="140.121" y2="11.5634" gradientUnits="userSpaceOnUse">
<stop stop-color="#B62A7E"/>
<stop offset="1" stop-color="#D74A9E"/>
</linearGradient>
<linearGradient id="paint3_linear_986_14" x1="112.875" y1="273.328" x2="54.1209" y2="279.532" gradientUnits="userSpaceOnUse">
<stop stop-color="#B62A7E"/>
<stop offset="1" stop-color="#D74A9E"/>
</linearGradient>
<linearGradient id="paint4_linear_986_14" x1="284.875" y1="273.328" x2="226.121" y2="279.532" gradientUnits="userSpaceOnUse">
<stop stop-color="#B62A7E"/>
<stop offset="1" stop-color="#D74A9E"/>
</linearGradient>
<linearGradient id="paint5_linear_986_14" x1="216.613" y1="300.125" x2="124.532" y2="321.248" gradientUnits="userSpaceOnUse">
<stop stop-color="#B62A7E"/>
<stop offset="1" stop-color="#D74A9E"/>
</linearGradient>
<linearGradient id="paint6_linear_986_14" x1="322.501" y1="176.859" x2="277.272" y2="178.997" gradientUnits="userSpaceOnUse">
<stop stop-color="#B62A7E"/>
<stop offset="1" stop-color="#D74A9E"/>
</linearGradient>
<linearGradient id="paint7_linear_986_14" x1="129.414" y1="28.9941" x2="42.3441" y2="39.9264" gradientUnits="userSpaceOnUse">
<stop stop-color="#B62A7E"/>
<stop offset="1" stop-color="#D74A9E"/>
</linearGradient>
<linearGradient id="paint8_linear_986_14" x1="295.648" y1="33.4961" x2="206.468" y2="45.7431" gradientUnits="userSpaceOnUse">
<stop stop-color="#B62A7E"/>
<stop offset="1" stop-color="#D74A9E"/>
</linearGradient>
<linearGradient id="paint9_linear_986_14" x1="59.3938" y1="176.875" x2="3.74842" y2="180.205" gradientUnits="userSpaceOnUse">
<stop stop-color="#B62A7E"/>
<stop offset="1" stop-color="#D74A9E"/>
</linearGradient>
<linearGradient id="paint10_linear_986_14" x1="225.75" y1="117.904" x2="107.654" y2="127.141" gradientUnits="userSpaceOnUse">
<stop stop-color="#B62A7E"/>
<stop offset="1" stop-color="#D74A9E"/>
</linearGradient>
<linearGradient id="paint11_linear_986_14" x1="252.625" y1="166.141" x2="235.238" y2="168.894" gradientUnits="userSpaceOnUse">
<stop stop-color="#B62A7E"/>
<stop offset="1" stop-color="#D74A9E"/>
</linearGradient>
<linearGradient id="paint12_linear_986_14" x1="107.5" y1="166.141" x2="90.1134" y2="168.894" gradientUnits="userSpaceOnUse">
<stop stop-color="#B62A7E"/>
<stop offset="1" stop-color="#D74A9E"/>
</linearGradient>
<linearGradient id="paint13_linear_986_14" x1="225.169" y1="110.823" x2="214.854" y2="125.048" gradientUnits="userSpaceOnUse">
<stop stop-color="#B62A7E"/>
<stop offset="1" stop-color="#D74A9E"/>
</linearGradient>
<linearGradient id="paint14_linear_986_14" x1="122.56" y1="213.228" x2="112.245" y2="227.453" gradientUnits="userSpaceOnUse">
<stop stop-color="#B62A7E"/>
<stop offset="1" stop-color="#D74A9E"/>
</linearGradient>
<linearGradient id="paint15_linear_986_14" x1="221.388" y1="213.208" x2="213.64" y2="222.152" gradientUnits="userSpaceOnUse">
<stop stop-color="#B62A7E"/>
<stop offset="1" stop-color="#D74A9E"/>
</linearGradient>
<linearGradient id="paint16_linear_986_14" x1="118.739" y1="110.845" x2="110.991" y2="119.788" gradientUnits="userSpaceOnUse">
<stop stop-color="#B62A7E"/>
<stop offset="1" stop-color="#D74A9E"/>
</linearGradient>
<linearGradient id="paint17_linear_986_14" x1="177.375" y1="91.1094" x2="165.552" y2="91.9417" gradientUnits="userSpaceOnUse">
<stop stop-color="#B62A7E"/>
<stop offset="1" stop-color="#D74A9E"/>
</linearGradient>
</defs>
</svg>
