<svg width="33" height="90" viewBox="0 0 33 90" fill="none" xmlns="http://www.w3.org/2000/svg">
<path d="M0.5395 90V88.08L11.6755 78.992L9.6275 82.576V40.08L15.1315 48.4L0.4115 37.008V34.832L19.9955 27.408H23.1955V82.832L21.2755 79.12L32.2835 88.08V90H0.5395ZM16.6675 18.32C13.6808 18.32 11.2915 17.4667 9.4995 15.76C7.7075 14.0533 6.8115 11.8347 6.8115 9.104C6.8115 6.45866 7.7075 4.28266 9.4995 2.576C11.2915 0.869331 13.6808 0.0159988 16.6675 0.0159988C19.5688 0.0159988 21.9155 0.869331 23.7075 2.576C25.4995 4.28266 26.3955 6.45866 26.3955 9.104C26.3955 11.8347 25.4995 14.0533 23.7075 15.76C21.9155 17.4667 19.5688 18.32 16.6675 18.32Z" fill="url(#paint0_linear_1021_13)"/>
<defs>
<linearGradient id="paint0_linear_1021_13" x1="8.5" y1="1.23036e-09" x2="29.5" y2="85" gradientUnits="userSpaceOnUse">
<stop stop-color="#FF00AD"/>
<stop offset="1" stop-color="#C30184"/>
</linearGradient>
</defs>
</svg>
