<svg width="94" height="94" viewBox="0 0 94 94" fill="none" xmlns="http://www.w3.org/2000/svg">
<path fill-rule="evenodd" clip-rule="evenodd" d="M46.9999 52.3841C37.4899 46.8987 19.0246 33.6239 18.783 20.3791C18.5192 5.91872 34.7725 -0.639617 46.9999 11.7937C59.2256 -0.637597 75.4784 5.91633 75.2168 20.3765C74.9775 33.6225 56.5102 46.8979 46.9999 52.3841ZM82.8803 46.259C82.898 50.6921 83.5657 51.6104 80.5933 54.583L70.4608 64.7157C68.4743 66.7018 67.6239 63.3795 68.3742 62.629L79.4233 51.58C80.0137 50.9895 80.861 49.4077 79.5457 48.0937C78.1352 46.6852 75.9833 46.6752 74.4308 47.8223C73.8464 48.254 73.3795 48.9287 72.8802 49.4664C70.6677 51.848 68.1976 53.9623 65.7105 56.058C64.9208 56.7237 64.1253 57.3881 63.3583 58.0795C61.0376 60.171 60.667 63.1482 60.6714 66.1037L60.698 86.0939C60.7 87.5684 61.9025 88.7694 63.3766 88.7694H74.1229C75.5983 88.7694 76.8019 87.566 76.8019 86.0904V74.8137L89.9388 61.6772C91.8151 59.8009 92.7902 57.4531 92.7151 54.7967L91.8928 28.4497C91.8322 26.3039 89.5639 24.622 87.5148 24.6534C87.1147 24.6596 86.7197 24.7281 86.3422 24.8612C83.2729 25.9429 82.8087 30.4393 82.819 33.1782L82.8803 46.259ZM11.1191 46.259L11.18 33.1784C11.1907 30.4395 10.7262 25.9429 7.65703 24.8614C7.27938 24.7283 6.88465 24.6598 6.4846 24.6535C4.43551 24.622 2.16721 26.3039 2.10626 28.4499L1.28431 54.7969C1.20922 57.4533 2.18428 59.8009 4.06061 61.6771L17.1975 74.8139V86.0906C17.1975 87.5658 18.4009 88.7696 19.8761 88.7696L30.6224 88.7693C32.0968 88.7693 33.2994 87.5684 33.3014 86.0939L33.328 66.1037C33.3324 63.1482 32.9614 60.171 30.6411 58.0795C29.8741 57.3881 29.0784 56.7235 28.2889 56.058C25.802 53.9623 23.3315 51.8482 21.119 49.4664C20.62 48.9287 20.1532 48.254 19.5688 47.8223C18.0159 46.6752 15.8644 46.6848 14.4537 48.0937C13.1382 49.4077 13.9855 50.9895 14.5763 51.58L25.6253 62.629C26.3753 63.3792 25.5249 66.7017 23.5386 64.7154L13.4059 54.5828C10.4337 51.6106 11.1016 50.6919 11.1191 46.259Z" fill="white"/>
</svg>
