<svg width="95" height="93" viewBox="0 0 95 93" fill="none" xmlns="http://www.w3.org/2000/svg">
<path d="M51.0749 47.1261C52.5923 46.3485 53.7996 45.0953 54.5038 43.5669C55.2079 42.0385 55.3683 40.3231 54.9593 38.6949C54.5503 37.0668 53.5954 35.6199 52.2474 34.5855C50.8994 33.5511 49.2361 32.989 47.5233 32.989C45.8105 32.989 44.1472 33.5511 42.7992 34.5855C41.4512 35.6199 40.4963 37.0668 40.0873 38.6949C39.6783 40.3231 39.8387 42.0385 40.5428 43.5669C41.247 45.0953 42.4543 46.3485 43.9717 47.1261C41.8783 47.8473 40.0647 49.1861 38.7808 50.9581C37.4969 52.7302 36.8058 54.8483 36.8027 57.0208C36.8027 57.4185 36.9641 57.7998 37.2513 58.0809C37.5385 58.3621 37.9281 58.5201 38.3342 58.5201H56.7124C57.1186 58.5201 57.5081 58.3621 57.7953 58.0809C58.0825 57.7998 58.2439 57.4185 58.2439 57.0208C58.2408 54.8483 57.5497 52.7302 56.2658 50.9581C54.9819 49.1861 53.1684 47.8473 51.0749 47.1261ZM47.5233 36.032C48.432 36.032 49.3203 36.2957 50.0759 36.7899C50.8315 37.2841 51.4204 37.9866 51.7681 38.8084C52.1159 39.6302 52.2068 40.5346 52.0296 41.407C51.8523 42.2795 51.4147 43.0809 50.7721 43.7099C50.1296 44.3389 49.3109 44.7672 48.4197 44.9408C47.5284 45.1143 46.6046 45.0252 45.7651 44.6848C44.9255 44.3444 44.2079 43.7679 43.7031 43.0283C43.1982 42.2887 42.9288 41.4191 42.9288 40.5296C42.9288 39.3367 43.4128 38.1927 44.2745 37.3493C45.1361 36.5058 46.3048 36.032 47.5233 36.032ZM40.0189 55.5216C40.3704 53.8271 41.3096 52.3036 42.6772 51.2094C44.0449 50.1151 45.7569 49.5173 47.5233 49.5173C49.2897 49.5173 51.0017 50.1151 52.3694 51.2094C53.7371 52.3036 54.6762 53.8271 55.0277 55.5216H40.0189Z" fill="url(#paint0_linear_503_74)"/>
<path d="M79.6861 63.0177C76.1539 63.015 72.7305 64.2132 70.0008 66.4074L62.6281 59.1902C65.5418 55.8691 67.2216 51.6805 67.3941 47.306L83.0339 46.7393C83.4701 48.1232 84.4065 49.3042 85.6679 50.061C86.9294 50.8178 88.4293 51.0987 89.887 50.851C91.3448 50.6034 92.6603 49.8441 93.5874 48.7155C94.5146 47.5868 94.9897 46.166 94.9239 44.7192C94.8582 43.2723 94.256 41.8985 93.2301 40.8549C92.2042 39.8113 90.825 39.1694 89.3506 39.0495C87.8761 38.9296 86.4076 39.3397 85.2198 40.2033C84.032 41.0668 83.2065 42.3245 82.8976 43.7409L67.2946 44.3061C66.9604 41.4672 65.9926 38.7349 64.4596 36.3029C62.9267 33.871 60.8662 31.7987 58.4241 30.233L61.3508 25.0248C63.5293 25.7691 65.9139 25.6851 68.032 24.7894C70.1502 23.8936 71.8472 22.2516 72.7868 20.1887C73.7265 18.1258 73.84 15.7926 73.1051 13.6516C72.3701 11.5106 70.8403 9.718 68.8187 8.62916C66.7972 7.54032 64.4316 7.23469 62.1907 7.77286C59.9498 8.31102 57.9972 9.65369 56.72 11.5348C55.4428 13.4158 54.9341 15.698 55.2949 17.9289C55.6556 20.1597 56.8594 22.1766 58.6676 23.5795L55.7393 28.7908C52.2957 27.2471 48.4715 26.7042 44.7218 27.2267C40.972 27.7493 37.4545 29.3152 34.5877 31.7382L27.215 24.521C29.7062 21.5385 30.931 17.7328 30.6361 13.891C30.3412 10.0492 28.5492 6.46539 25.6307 3.88074C22.7122 1.29609 18.8906 -0.0916004 14.9562 0.00469641C11.0218 0.100993 7.27577 1.67391 4.49287 4.39811C1.70998 7.1223 0.103169 10.7893 0.0047976 14.6407C-0.0935741 18.4921 1.32402 22.2332 3.96436 25.0901C6.6047 27.947 10.2658 29.7013 14.1903 29.9899C18.1149 30.2786 22.0026 29.0796 25.0494 26.6409L32.4221 33.8581C30.4711 36.063 29.0567 38.6726 28.2855 41.4902C27.5144 44.3079 27.4065 47.2601 27.97 50.1245L14.5187 53.6686C13.6661 52.049 12.2357 50.7921 10.4991 50.1364C8.76246 49.4807 6.84037 49.4719 5.09752 50.1116C3.35467 50.7513 1.91234 51.995 1.04419 53.6067C0.176043 55.2185 -0.0575133 57.0861 0.387837 58.8552C0.833188 60.6244 1.92646 62.1719 3.46021 63.2043C4.99396 64.2366 6.86147 64.6819 8.7084 64.4557C10.5553 64.2294 12.2532 63.3474 13.4797 61.9769C14.7063 60.6064 15.3763 58.8429 15.3626 57.0208C15.3626 56.8709 15.3258 56.721 15.3151 56.5711L28.7756 53.024C30.3252 57.2829 33.3335 60.8852 37.2892 63.2186L34.047 69.5542C31.4713 68.7098 28.6644 68.8518 26.1913 69.9517C23.7182 71.0516 21.7625 73.0276 20.7179 75.4822C19.6733 77.9368 19.6172 80.6876 20.561 83.181C21.5049 85.6743 23.3785 87.7252 25.8048 88.9207C28.2311 90.1163 31.03 90.3677 33.6381 89.6245C36.2462 88.8813 38.4699 87.1986 39.8616 84.915C41.2533 82.6315 41.7097 79.9166 41.1389 77.3169C40.5682 74.7172 39.0126 72.4257 36.7854 70.9035L40.0199 64.5679C43.4022 65.9252 47.1024 66.3394 50.7104 65.7644C54.3184 65.1893 57.6932 63.6476 60.461 61.3101L67.8337 68.5273C65.6361 71.163 64.4201 74.4523 64.3858 77.8543C64.3515 81.2564 65.5009 84.5686 67.6449 87.2462C69.789 89.9239 72.8001 91.8076 76.183 92.5877C79.5659 93.3677 83.1193 92.9976 86.2588 91.5382C89.3983 90.0788 91.937 87.617 93.4575 84.5576C94.9779 81.4982 95.3896 78.0234 94.6247 74.7047C93.8599 71.3859 91.9641 68.4206 89.2491 66.2966C86.5341 64.1726 83.1616 63.0162 79.6861 63.0177ZM88.8751 42.0288C89.4809 42.0288 90.0731 42.2046 90.5768 42.5341C91.0806 42.8636 91.4732 43.3319 91.705 43.8797C91.9368 44.4276 91.9975 45.0305 91.8793 45.6122C91.7611 46.1938 91.4694 46.7281 91.041 47.1474C90.6126 47.5667 90.0669 47.8523 89.4727 47.968C88.8785 48.0837 88.2626 48.0243 87.703 47.7974C87.1433 47.5704 86.6649 47.1861 86.3283 46.693C85.9917 46.1999 85.8121 45.6202 85.8121 45.0272C85.8121 44.232 86.1348 43.4693 86.7092 42.907C87.2837 42.3447 88.0628 42.0288 88.8751 42.0288ZM64.3709 10.5454C65.5826 10.5454 66.767 10.8971 67.7744 11.5561C68.7818 12.215 69.567 13.1516 70.0307 14.2474C70.4943 15.3432 70.6157 16.5489 70.3793 17.7122C70.1429 18.8755 69.5595 19.944 68.7027 20.7827C67.846 21.6213 66.7544 22.1925 65.5661 22.4239C64.3777 22.6553 63.146 22.5365 62.0266 22.0826C60.9072 21.6287 59.9505 20.8601 59.2773 19.8739C58.6042 18.8877 58.2449 17.7283 58.2449 16.5423C58.2449 14.9518 58.8903 13.4265 60.0392 12.3019C61.188 11.1772 62.7462 10.5454 64.3709 10.5454ZM7.70504 61.5185C6.79633 61.5185 5.90802 61.2547 5.15246 60.7605C4.39689 60.2663 3.808 59.5638 3.46025 58.742C3.1125 57.9202 3.02151 57.0159 3.19879 56.1434C3.37607 55.271 3.81366 54.4696 4.45622 53.8406C5.09878 53.2115 5.91744 52.7832 6.80869 52.6096C7.69995 52.4361 8.62375 52.5252 9.46329 52.8656C10.3028 53.206 11.0204 53.7825 11.5253 54.5221C12.0301 55.2617 12.2996 56.1313 12.2996 57.0208C12.2996 58.2137 11.8155 59.3577 10.9539 60.2011C10.0922 61.0446 8.92359 61.5185 7.70504 61.5185ZM38.3353 79.5089C38.3353 80.9915 37.8862 82.4408 37.0447 83.6735C36.2033 84.9062 35.0074 85.867 33.6081 86.4344C32.2089 87.0017 30.6692 87.1502 29.1838 86.861C27.6984 86.5717 26.3339 85.8578 25.263 84.8094C24.1921 83.7611 23.4628 82.4254 23.1673 80.9714C22.8718 79.5173 23.0235 78.0101 23.603 76.6403C24.1826 75.2706 25.1641 74.0999 26.4234 73.2762C27.6827 72.4526 29.1632 72.0129 30.6777 72.0129C32.7079 72.0153 34.6542 72.8058 36.0897 74.2111C37.5253 75.6163 38.3328 77.5216 38.3353 79.5089ZM3.11051 15.0431C3.10575 13.0943 3.58614 11.1738 4.51011 9.44769C5.43409 7.72157 6.7738 6.24184 8.41335 5.13654C10.0529 4.03125 11.9429 3.33368 13.9197 3.10419C15.8966 2.8747 17.9008 3.12022 19.759 3.81948C21.6171 4.51875 23.2732 5.65071 24.584 7.11741C25.8948 8.58411 26.8207 10.3414 27.2816 12.2371C27.7426 14.1329 27.7248 16.1101 27.2296 17.9976C26.7344 19.8851 25.7769 21.626 24.4399 23.0698C24.5105 22.9012 24.5484 22.7213 24.5517 22.5391C24.5555 21.3574 24.3198 20.1866 23.8582 19.0947C23.3966 18.0028 22.7182 17.0114 21.8623 16.178C21.252 15.5806 20.5591 15.0699 19.804 14.6608C20.6317 13.8112 21.1865 12.7426 21.3996 11.5872C21.6127 10.4319 21.4747 9.24081 21.0026 8.16157C20.5306 7.08233 19.7454 6.16245 18.7443 5.516C17.7432 4.86955 16.5703 4.52496 15.371 4.52496C14.1717 4.52496 12.9988 4.86955 11.9977 5.516C10.9966 6.16245 10.2114 7.08233 9.7394 8.16157C9.26739 9.24081 9.12937 10.4319 9.34244 11.5872C9.55552 12.7426 10.1103 13.8112 10.9381 14.6608C9.49617 15.4362 8.29339 16.5763 7.45529 17.9622C6.6172 19.348 6.17454 20.9286 6.17353 22.5391C6.17665 22.7194 6.21297 22.8976 6.28074 23.0653C4.24215 20.8699 3.11195 18.0099 3.11051 15.0431ZM15.3626 13.5438C14.7568 13.5438 14.1646 13.368 13.6609 13.0385C13.1572 12.7091 12.7646 12.2408 12.5327 11.6929C12.3009 11.145 12.2402 10.5421 12.3584 9.96047C12.4766 9.37884 12.7683 8.84457 13.1967 8.42523C13.6251 8.0059 14.1709 7.72033 14.765 7.60463C15.3592 7.48894 15.9751 7.54832 16.5348 7.77526C17.0945 8.0022 17.5728 8.38652 17.9094 8.8796C18.246 9.37269 18.4256 9.9524 18.4256 10.5454C18.4256 11.3407 18.1029 12.1033 17.5285 12.6656C16.9541 13.2279 16.175 13.5438 15.3626 13.5438ZM15.3626 16.5423C16.7207 16.5423 18.0403 16.984 19.114 17.7982C20.1877 18.6123 20.9546 19.7526 21.2941 21.0399H9.42952C9.77078 19.7533 10.5383 18.6138 11.612 17.7999C12.6856 16.986 14.0047 16.5437 15.3626 16.5423ZM7.16901 23.9334C7.3397 23.9999 7.52134 24.0355 7.70504 24.0383H23.0202C23.2067 24.0358 23.3911 23.9992 23.5638 23.9304C21.3223 25.9267 18.4007 27.033 15.3703 27.033C12.3398 27.033 9.41825 25.9267 7.17667 23.9304L7.16901 23.9334ZM30.6777 46.5264C30.6777 43.2647 31.6657 40.0763 33.5169 37.3643C35.368 34.6524 37.9991 32.5386 41.0774 31.2904C44.1557 30.0423 47.543 29.7157 50.8109 30.352C54.0789 30.9883 57.0806 32.559 59.4367 34.8653C61.7927 37.1716 63.3972 40.1101 64.0472 43.3091C64.6973 46.5081 64.3637 49.824 63.0886 52.8373C61.8135 55.8507 59.6542 58.4263 56.8838 60.2384C54.1134 62.0505 50.8563 63.0177 47.5243 63.0177C43.0579 63.0125 38.776 61.2734 35.6178 58.1818C32.4596 55.0902 30.683 50.8986 30.6777 46.5264ZM71.4925 86.9C71.6632 86.9666 71.8448 87.0022 72.0285 87.005H87.3436C87.5301 87.0025 87.7145 86.9659 87.8873 86.897C85.6457 88.8934 82.7242 89.9997 79.6937 89.9997C76.6633 89.9997 73.7417 88.8934 71.5001 86.897L71.4925 86.9ZM79.6861 76.5105C79.0802 76.5105 78.488 76.3347 77.9843 76.0052C77.4806 75.6757 77.088 75.2075 76.8562 74.6596C76.6244 74.1117 76.5637 73.5088 76.6819 72.9272C76.8001 72.3455 77.0918 71.8113 77.5202 71.3919C77.9485 70.9726 78.4943 70.687 79.0885 70.5713C79.6827 70.4556 80.2985 70.515 80.8582 70.742C81.4179 70.9689 81.8963 71.3532 82.2329 71.8463C82.5694 72.3394 82.7491 72.9191 82.7491 73.5121C82.7491 74.3074 82.4264 75.07 81.8519 75.6323C81.2775 76.1946 80.4984 76.5105 79.6861 76.5105ZM79.6861 79.5089C81.0442 79.5089 82.3638 79.9507 83.4375 80.7649C84.5112 81.579 85.2781 82.7193 85.6176 84.0066H73.753C74.0942 82.72 74.8618 81.5805 75.9354 80.7666C77.0091 79.9527 78.3281 79.5104 79.6861 79.5089ZM88.7618 86.0365C88.833 85.868 88.8714 85.688 88.8751 85.5058C88.879 84.3241 88.6433 83.1533 88.1816 82.0614C87.72 80.9695 87.0416 79.9781 86.1858 79.1446C85.5755 78.5473 84.8826 78.0366 84.1274 77.6274C84.9552 76.7779 85.51 75.7092 85.7231 74.5539C85.9361 73.3986 85.7981 72.2075 85.3261 71.1283C84.8541 70.049 84.0688 69.1291 83.0678 68.4827C82.0667 67.8362 80.8938 67.4916 79.6945 67.4916C78.4952 67.4916 77.3223 67.8362 76.3212 68.4827C75.3201 69.1291 74.5349 70.049 74.0629 71.1283C73.5909 72.2075 73.4528 73.3986 73.6659 74.5539C73.879 75.7092 74.4338 76.7779 75.2615 77.6274C73.8196 78.4029 72.6168 79.543 71.7787 80.9288C70.9407 82.3147 70.498 83.8953 70.497 85.5058C70.5001 85.6861 70.5364 85.8643 70.6042 86.032C69.0116 84.3114 67.9635 82.1752 67.587 79.8828C67.2105 77.5904 67.5218 75.2404 68.4832 73.1178C69.4445 70.9952 71.0146 69.1915 73.0028 67.9254C74.991 66.6593 77.3119 65.9854 79.6838 65.9854C82.0556 65.9854 84.3765 66.6593 86.3647 67.9254C88.3529 69.1915 89.923 70.9952 90.8843 73.1178C91.8457 75.2404 92.157 77.5904 91.7805 79.8828C91.404 82.1752 90.3559 84.3114 88.7633 86.032L88.7618 86.0365Z" fill="url(#paint1_linear_503_74)"/>
<defs>
<linearGradient id="paint0_linear_503_74" x1="58.0329" y1="44.0713" x2="46.6277" y2="44.6092" gradientUnits="userSpaceOnUse">
<stop stop-color="#BA25BD"/>
<stop offset="1" stop-color="#B62A7E"/>
</linearGradient>
<linearGradient id="paint1_linear_503_74" x1="94.0654" y1="40.3628" x2="43.5855" y2="43.2589" gradientUnits="userSpaceOnUse">
<stop stop-color="#BA25BD"/>
<stop offset="1" stop-color="#B62A7E"/>
</linearGradient>
</defs>
</svg>
