<svg width="92" height="92" viewBox="0 0 92 92" fill="none" xmlns="http://www.w3.org/2000/svg">
<path fill-rule="evenodd" clip-rule="evenodd" d="M79.0625 69H20.125C16.1555 69 12.9375 72.218 12.9375 76.1875C12.9375 80.157 16.1555 83.375 20.125 83.375H80.5C81.2939 83.375 81.9375 84.0186 81.9375 84.8125C81.9375 85.6064 81.2939 86.25 80.5 86.25H20.125C14.5676 86.25 10.0625 81.7449 10.0625 76.1875V15.8125C10.0625 10.2551 14.5676 5.75 20.125 5.75H77.625C80.0068 5.75 81.9375 7.68078 81.9375 10.0625V73.3125C81.9375 74.1064 81.2939 74.75 80.5 74.75H20.125C19.3311 74.75 18.6875 74.1064 18.6875 73.3125C18.6875 72.5186 19.3311 71.875 20.125 71.875H79.0625V69ZM40.25 24.4375C40.25 23.6436 40.8936 23 41.6875 23H50.3125C50.6937 23 51.0594 23.1515 51.329 23.421C51.5985 23.6906 51.75 24.0563 51.75 24.4375V33.0625H60.375C61.1689 33.0625 61.8125 33.7061 61.8125 34.5V43.125C61.8125 43.9189 61.1689 44.5625 60.375 44.5625H51.75V53.1875C51.75 53.9814 51.1064 54.625 50.3125 54.625H41.6875C41.3063 54.625 40.9406 54.4735 40.671 54.204C40.4015 53.9344 40.25 53.5687 40.25 53.1875V44.5625H31.625C30.8311 44.5625 30.1875 43.9189 30.1875 43.125V34.5C30.1875 34.1188 30.339 33.7531 30.6085 33.4835C30.8781 33.214 31.2438 33.0625 31.625 33.0625H40.25V24.4375Z" fill="white"/>
<path d="M18.6875 79.0625C18.6875 78.2686 19.3311 77.625 20.125 77.625H80.5C81.2939 77.625 81.9375 78.2686 81.9375 79.0625C81.9375 79.8564 81.2939 80.5 80.5 80.5H20.125C19.3311 80.5 18.6875 79.8564 18.6875 79.0625Z" fill="white"/>
</svg>
