<svg width="87" height="87" viewBox="0 0 87 87" fill="none" xmlns="http://www.w3.org/2000/svg">
<path d="M45.822 41.7423L43.8998 39.8202C43.2881 40.4305 42.4425 40.7813 41.578 40.7813H39.9848C39.1216 40.7813 38.2747 40.4305 37.6643 39.8202L35.7422 41.7423C36.8759 42.8761 38.3821 43.5 39.9862 43.5H41.5793C43.182 43.5 44.6882 42.8761 45.822 41.7423Z" fill="white"/>
<path d="M84.2812 66.6094H78.8438V59.8125C78.8438 59.0621 78.2347 58.4531 77.4844 58.4531H70.7854C69.6421 57.9039 68.4418 57.4676 67.1966 57.1916L54.9188 54.462L51.6562 52.2884V49.5805C56.5799 46.1372 59.8125 40.436 59.8125 33.9844V32.625C62.8113 32.625 65.25 30.1863 65.25 27.1875C65.25 24.1887 62.8113 21.75 59.8125 21.75V20.3906C59.8125 9.89625 51.2756 1.35938 40.7812 1.35938C30.2869 1.35938 21.75 9.89625 21.75 20.3906V21.75C18.7512 21.75 16.3125 24.1887 16.3125 27.1875C16.3125 30.1863 18.7512 32.625 21.75 32.625V33.9844C21.75 40.4346 24.9826 46.1372 29.9062 49.5805V52.2884L26.6451 54.4634L14.3672 57.1916C6.70852 58.8936 1.35938 65.5613 1.35938 73.4062V84.2812C1.35938 84.6415 1.50211 84.9881 1.75767 85.2423C2.01323 85.4965 2.35852 85.6406 2.71875 85.6406H53.0156H54.375H80.2031C80.9535 85.6406 81.5625 85.0316 81.5625 84.2812V77.4844H84.2812C85.0316 77.4844 85.6406 76.8754 85.6406 76.125V67.9688C85.6406 67.2184 85.0316 66.6094 84.2812 66.6094ZM57.0938 74.7656C55.5944 74.7656 54.375 73.5463 54.375 72.0469C54.375 70.5475 55.5944 69.3281 57.0938 69.3281H59.8125V74.7656H57.0938ZM25.4665 61.6069C25.1294 61.2426 24.621 61.0903 24.1384 61.2113L20.1636 62.205L19.677 58.7957L26.2862 57.3262L34.8177 82.9219H29.3883L23.2181 70.5828L25.7588 62.9608C25.9151 62.4905 25.8037 61.9712 25.4665 61.6069ZM31.4084 54.5544L38.1291 57.435L31.0291 62.9567L28.8065 56.289L31.4084 54.5544ZM50.1555 54.5544L52.7573 56.289L52.0369 58.4531H50.2969C48.875 58.4531 47.589 59.0145 46.6184 59.9117L43.4347 57.4363L50.1555 54.5544ZM50.2969 66.6094C48.7975 66.6094 47.5781 65.39 47.5781 63.8906C47.5781 62.3912 48.7975 61.1719 50.2969 61.1719H53.0156V66.6094H50.2969ZM34.2998 63.858L36.6678 67.0158L35.8644 77.4653L31.9399 65.6932L34.2998 63.858ZM38.7422 65.25L36.4462 62.1887L40.7812 58.8161L45.1163 62.1873L42.8203 65.25H38.7422ZM44.8947 67.0158L45.4398 66.2886C46.0692 67.5555 47.169 68.5342 48.5175 69.006L45.6981 77.4653L44.8947 67.0158ZM39.3226 67.9688H42.2426L43.3926 82.9219H38.1726L39.3226 67.9688ZM47.5958 80.3744C47.6257 81.3029 47.8935 82.1661 48.3353 82.9219H46.7475L47.5958 80.3744ZM48.7717 76.8455L51.277 69.3281H52.4121C51.9444 70.1315 51.6562 71.0518 51.6562 72.0469C51.6562 73.065 51.9553 74.0085 52.4447 74.8241C50.9562 74.9818 49.6552 75.7308 48.7717 76.8455ZM55.7344 66.6094V61.1719H76.125V66.6094H55.7344ZM54.9024 58.4531L55.2776 57.3276L60.344 58.4531H54.9024ZM24.4688 24.9962L25.9301 25.4828C26.4249 28.7467 29.2252 31.2656 32.625 31.2656C35.9065 31.2656 38.6525 28.9261 39.2846 25.8281H42.2779C42.91 28.9261 45.6546 31.2656 48.9375 31.2656C52.3373 31.2656 55.1376 28.7481 55.6324 25.4828L57.0938 24.9948V29.3435L54.129 32.3083C53.4112 33.026 53.0156 33.9803 53.0156 34.9944C53.0156 36.6855 51.6399 38.0625 49.9489 38.0625C48.9212 38.0625 47.9669 37.5527 47.396 36.6963C46.2636 34.9985 44.37 33.9844 42.3282 33.9844H39.2356C37.1952 33.9844 35.3003 34.9985 34.1679 36.6963C33.5983 37.5527 32.644 38.0625 31.615 38.0625C29.9239 38.0625 28.5469 36.6855 28.5469 34.9944C28.5469 33.9789 28.1513 33.0247 27.4335 32.3069L24.4688 29.3435V24.9962ZM28.5469 24.4688C28.5469 22.2203 30.3766 20.3906 32.625 20.3906C34.8734 20.3906 36.7031 22.2203 36.7031 24.4688C36.7031 26.7172 34.8734 28.5469 32.625 28.5469C30.3766 28.5469 28.5469 26.7172 28.5469 24.4688ZM44.8594 24.4688C44.8594 22.2203 46.6891 20.3906 48.9375 20.3906C51.1859 20.3906 53.0156 22.2203 53.0156 24.4688C53.0156 26.7172 51.1859 28.5469 48.9375 28.5469C46.6891 28.5469 44.8594 26.7172 44.8594 24.4688ZM62.5312 27.1875C62.5312 28.6869 61.3119 29.9062 59.8125 29.9062V24.4688C61.3133 24.4688 62.5312 25.6881 62.5312 27.1875ZM40.7812 4.07812C49.7762 4.07812 57.0938 11.3956 57.0938 20.3906V22.1293L55.4625 22.673C54.67 19.7993 52.06 17.6719 48.9375 17.6719C45.656 17.6719 42.91 20.0114 42.2779 23.1094H39.2846C38.6525 20.0114 35.9079 17.6719 32.625 17.6719C29.5025 17.6719 26.8925 19.7993 26.1 22.673L24.4688 22.1293V20.3906C24.4688 11.3956 31.7876 4.07812 40.7812 4.07812ZM19.0312 27.1875C19.0312 25.6881 20.2506 24.4688 21.75 24.4688V29.9062C20.2506 29.9062 19.0312 28.6869 19.0312 27.1875ZM24.4688 33.9844V33.1878L25.5114 34.2304C25.7153 34.4343 25.8281 34.7062 25.8281 34.9958C25.8281 38.1848 28.4259 40.7812 31.615 40.7812C33.5535 40.7812 35.3533 39.8188 36.4299 38.2039C37.0566 37.2645 38.106 36.7031 39.2356 36.7031H42.3282C43.4579 36.7031 44.5073 37.2645 45.1326 38.2039C46.2092 39.8188 48.009 40.7812 49.9489 40.7812C53.1393 40.7812 55.7357 38.1848 55.7357 34.9944C55.7357 34.7062 55.8486 34.4343 56.0525 34.2304L57.0938 33.1878V33.9844C57.0938 42.9794 49.7762 50.2969 40.7812 50.2969C31.7863 50.2969 24.4688 42.9794 24.4688 33.9844ZM40.7812 53.0156C43.7025 53.0156 46.4607 52.3346 48.9375 51.1533V52.1198L40.7812 55.6147L32.625 52.1198V51.1533C35.1018 52.3346 37.86 53.0156 40.7812 53.0156ZM4.07812 73.4062C4.07812 66.8445 8.55183 61.2684 14.9558 59.8451L17.0139 59.387L17.6841 64.0823C17.7385 64.4629 17.9519 64.8028 18.2714 65.0175C18.5895 65.231 18.9864 65.3003 19.3602 65.2079L22.3943 64.4493L20.4586 70.2552C20.3444 70.5978 20.3716 70.9702 20.532 71.2938L26.3474 82.9219H4.07812V73.4062ZM53.0156 82.9219C51.5162 82.9219 50.2969 81.7025 50.2969 80.2031C50.2969 78.7037 51.5162 77.4844 53.0156 77.4844H55.7344V82.9219H54.375H53.0156ZM78.8438 82.9219H58.4531V77.4844H78.8438V82.9219ZM82.9219 74.7656H80.2031H62.5312V69.3281H77.4844H82.9219V74.7656Z" fill="white"/>
</svg>
