<svg width="512" height="512" viewBox="0 0 512 512" fill="none" xmlns="http://www.w3.org/2000/svg">
<path fill-rule="evenodd" clip-rule="evenodd" d="M230.4 0H102.4C45.8496 0 0 45.8496 0 102.4V409.6C0 466.15 45.8496 512 102.4 512H409.6C466.15 512 512 466.15 512 409.6C512 351.462 512 281.6 512 281.6C512 267.469 500.531 256 486.4 256C472.269 256 460.8 267.469 460.8 281.6V409.6C460.8 437.862 437.862 460.8 409.6 460.8C324.352 460.8 187.622 460.8 102.4 460.8C74.112 460.8 51.2 437.862 51.2 409.6C51.2 324.352 51.2 187.622 51.2 102.4C51.2 74.112 74.112 51.2 102.4 51.2H230.4C244.531 51.2 256 39.7312 256 25.6C256 11.4688 244.531 0 230.4 0ZM424.602 51.2H332.8C318.669 51.2 307.2 39.7312 307.2 25.6C307.2 11.4688 318.669 0 332.8 0H486.4C500.531 0 512 11.4688 512 25.6V179.2C512 193.331 500.531 204.8 486.4 204.8C472.269 204.8 460.8 193.331 460.8 179.2V87.3984L274.099 274.099C264.115 284.083 247.885 284.083 237.901 274.099C227.891 264.115 227.891 247.885 237.901 237.901L424.602 51.2Z" fill="white"/>
</svg>
