<svg width="154" height="154" viewBox="0 0 154 154" fill="none" xmlns="http://www.w3.org/2000/svg">
<path d="M10.3796 149.38H143.62C144.437 149.38 145.221 149.056 145.798 148.478C146.376 147.9 146.7 147.117 146.7 146.3V131.1C146.689 127.199 145.762 123.356 143.994 119.878C142.226 116.401 139.666 113.388 136.521 111.08C124.447 102.256 114.545 97.1125 106.399 95.4801C106.214 95.0492 105.929 94.669 105.567 94.3713L98.252 88.3653C97.6791 87.8946 96.9557 87.6464 96.2145 87.6662C95.4733 87.686 94.7642 87.9725 94.2172 88.4731L77 104.181L59.7828 88.4269C59.2359 87.9263 58.5267 87.6398 57.7855 87.62C57.0444 87.6002 56.3209 87.8484 55.748 88.3191L48.433 94.3251C48.071 94.6228 47.7858 95.0031 47.6014 95.4339C39.4548 97.1125 29.5526 102.256 17.4944 111.096C14.3444 113.4 11.7803 116.412 10.0093 119.89C8.23838 123.368 7.31015 127.213 7.29962 131.116V146.3C7.29962 147.117 7.62412 147.9 8.20173 148.478C8.77935 149.056 9.56275 149.38 10.3796 149.38ZM77 112.328L85.3314 119.165L80.8808 124.74H73.1808L68.7302 119.135L77 112.328ZM73.7968 130.9H80.2032L84.7 143.22H69.3L73.7968 130.9ZM140.54 131.07V143.22H91.2604L85.8704 128.405L90.1054 123.062L91.8302 124.478C92.3803 124.934 93.0717 125.185 93.786 125.187C94.0511 125.181 94.3146 125.145 94.5714 125.079C95.0418 124.952 95.4755 124.716 95.837 124.39C96.1984 124.063 96.4771 123.655 96.6504 123.2L105.074 101.44C112.281 102.98 121.614 107.816 132.794 116.055C135.178 117.777 137.121 120.037 138.467 122.651C139.813 125.265 140.523 128.16 140.54 131.1V131.07ZM96.404 94.7717L99.946 97.6669L92.4 117.04L81.62 108.231L96.404 94.7717ZM57.596 94.7717L72.38 108.216L61.6 117.04L54.054 97.6669L57.596 94.7717ZM13.4596 131.1C13.4737 128.167 14.1781 125.277 15.5158 122.666C16.8534 120.055 18.7868 117.795 21.1596 116.07C32.417 107.831 41.7494 102.934 48.8796 101.455L57.3496 123.2C57.5264 123.654 57.8084 124.06 58.1725 124.384C58.5366 124.708 58.9724 124.941 59.444 125.064C59.7008 125.13 59.9644 125.166 60.2294 125.171C60.9438 125.169 61.6352 124.919 62.1852 124.463L63.91 123.046L68.145 128.39L62.755 143.22H13.475L13.4596 131.1Z" fill="white"/>
<path d="M45.1374 40.6869C44.8763 46.3311 45.7887 51.9682 47.817 57.2419C47.519 62.6808 48.3257 68.1238 50.1886 73.2425C53.6382 82.4825 67.4674 92.6773 75.2598 93.6012H78.848C86.548 92.6773 100.408 82.4517 103.935 73.2425C105.866 67.9332 106.658 62.2769 106.26 56.6413V53.9925C108.108 49.7575 110.279 38.5925 108.863 32.1707C108.508 29.5527 104.92 8.05425 79.849 5.00505C60.5836 2.66425 54.516 11.7811 50.589 17.8179C49.6786 19.3441 48.5819 20.7511 47.3242 22.0067C41.4722 26.9347 37.268 31.1389 37.0986 31.2467C36.7952 31.5476 36.5577 31.9084 36.4013 32.3061C36.2449 32.7038 36.1729 33.1296 36.19 33.5567C36.209 33.9856 36.3174 34.4058 36.5084 34.7904C36.6993 35.1749 36.9686 35.5153 37.2988 35.7897C39.7133 37.72 42.3438 39.3634 45.1374 40.6869ZM98.175 71.0711C95.6186 77.8163 84.0686 86.6405 78.2782 87.4567H75.8296C70.0392 86.6405 58.52 77.8163 55.9482 71.0711C54.3404 66.5999 53.6796 61.8434 54.0078 57.1033V56.9801C54.0166 56.9395 54.0166 56.8975 54.0078 56.8569C54.0078 56.8569 54.5314 48.2021 59.7828 44.8603C62.853 45.2082 65.9527 45.2082 69.0228 44.8603C81.004 43.3203 87.6106 39.2239 90.4904 36.8831C94.402 39.1623 97.4204 44.4907 100.131 53.7307V56.8107C100.123 56.9389 100.123 57.0674 100.131 57.1957C100.436 61.9059 99.7707 66.6288 98.175 71.0711ZM51.2512 26.7191C52.968 25.1021 54.4552 23.2575 55.671 21.2367C59.3978 15.6003 63.6328 9.24005 79.1406 11.1189C100.701 13.7369 102.703 32.2015 102.78 32.9869C102.772 33.1254 102.772 33.2642 102.78 33.4027C103.263 36.4973 103.232 39.6506 102.687 42.7351C100.131 37.0987 96.5272 32.2939 90.9062 30.2765C90.3185 30.0774 89.6852 30.056 89.0853 30.2148C88.4855 30.3737 87.9458 30.7058 87.5336 31.1697C87.5336 31.1697 82.3592 36.9601 68.2682 38.7003C65.3745 39.0696 62.4455 39.0696 59.5518 38.7003C58.944 38.6245 58.3274 38.7318 57.7808 39.0083C55.0997 40.376 52.87 42.4881 51.359 45.0913C51.2071 43.0819 51.2071 41.0639 51.359 39.0545C51.4095 38.4087 51.2551 37.7635 50.9178 37.2106C50.5805 36.6576 50.0775 36.2251 49.4802 35.9745C47.5967 35.1752 45.7746 34.2384 44.0286 33.1717C45.8304 31.4623 48.3406 29.1677 51.2512 26.7191Z" fill="white"/>
</svg>
