<svg width="155" height="155" viewBox="0 0 155 155" fill="none" xmlns="http://www.w3.org/2000/svg">
<path fill-rule="evenodd" clip-rule="evenodd" d="M40.7119 68.6198L47.7579 76.0016C48.675 76.9575 49.9408 77.5 51.2648 77.5C52.5888 77.5 53.8546 76.9575 54.7652 76.0016L67.1006 63.085C68.9413 61.1475 68.8702 58.0798 66.9392 56.2327C65.0017 54.3921 61.934 54.4631 60.0869 56.3942L51.2648 65.6425L47.7256 61.9289C45.8786 59.9979 42.8108 59.9269 40.8733 61.7739C38.9423 63.6146 38.8713 66.6887 40.7119 68.6198Z" fill="white"/>
<path fill-rule="evenodd" clip-rule="evenodd" d="M40.7119 107.37L47.7579 114.752C48.675 115.707 49.9408 116.25 51.2648 116.25C52.5888 116.25 53.8546 115.707 54.7652 114.752L67.1006 101.835C68.9413 99.8975 68.8702 96.8298 66.9392 94.9827C65.0017 93.1421 61.934 93.2131 60.0869 95.1442L51.2648 104.392L47.7256 100.679C45.8786 98.7479 42.8108 98.6769 40.8733 100.524C38.9423 102.365 38.8713 105.439 40.7119 107.37Z" fill="white"/>
<path fill-rule="evenodd" clip-rule="evenodd" d="M82.9688 71.0417H108.802C111.476 71.0417 113.646 68.8717 113.646 66.198C113.646 63.5242 111.476 61.3542 108.802 61.3542H82.9688C80.295 61.3542 78.125 63.5242 78.125 66.198C78.125 68.8717 80.295 71.0417 82.9688 71.0417Z" fill="white"/>
<path fill-rule="evenodd" clip-rule="evenodd" d="M82.9688 109.792H108.802C111.476 109.792 113.646 107.622 113.646 104.948C113.646 102.274 111.476 100.104 108.802 100.104H82.9688C80.295 100.104 78.125 102.274 78.125 104.948C78.125 107.622 80.295 109.792 82.9688 109.792Z" fill="white"/>
<path fill-rule="evenodd" clip-rule="evenodd" d="M105.947 18.0899L105.179 15.8036C103.642 11.1859 99.3212 8.073 94.4581 8.073H58.5627C53.6996 8.073 49.3789 11.1859 47.8419 15.8036L47.0733 18.0899C46.2531 20.557 45.8333 23.1467 45.8333 25.7495V25.8334C45.8333 28.8301 47.0216 31.704 49.1464 33.8224C51.2648 35.9472 54.1387 37.1355 57.1354 37.1355H95.8854C98.8821 37.1355 101.756 35.9472 103.874 33.8224C105.999 31.704 107.187 28.8301 107.187 25.8334V25.7495C107.187 23.1467 106.768 20.557 105.947 18.0899ZM95.9887 18.8649L96.7573 21.1511C97.2481 22.6365 97.5 24.1865 97.5 25.7495V25.8334C97.5 26.2597 97.3321 26.673 97.0285 26.9765C96.725 27.2801 96.3116 27.448 95.8854 27.448H57.1354C56.7091 27.448 56.2958 27.2801 55.9923 26.9765C55.6887 26.673 55.5208 26.2597 55.5208 25.8334V25.7495C55.5208 24.1865 55.7727 22.6365 56.2635 21.1511L57.0321 18.8649C57.2516 18.2061 57.8652 17.7605 58.5627 17.7605H94.4581C95.1556 17.7605 95.7691 18.2061 95.9887 18.8649Z" fill="white"/>
<path fill-rule="evenodd" clip-rule="evenodd" d="M50.6771 17.7605H37.7604C27.9502 17.7605 20 25.7107 20 35.5209V129.167C20 138.977 27.9502 146.927 37.7604 146.927H115.26C125.071 146.927 133.021 138.977 133.021 129.167V35.5209C133.021 25.7107 125.071 17.7605 115.26 17.7605C108.802 17.7605 102.344 17.7605 102.344 17.7605C99.67 17.7605 97.5 19.9305 97.5 22.6042C97.5 25.278 99.67 27.448 102.344 27.448H115.26C119.717 27.448 123.333 31.0647 123.333 35.5209V129.167C123.333 133.623 119.717 137.24 115.26 137.24H37.7604C33.3042 137.24 29.6875 133.623 29.6875 129.167V35.5209C29.6875 31.0647 33.3042 27.448 37.7604 27.448H50.6771C53.3508 27.448 55.5208 25.278 55.5208 22.6042C55.5208 19.9305 53.3508 17.7605 50.6771 17.7605Z" fill="white"/>
</svg>
