<svg width="144" height="145" viewBox="0 0 144 145" fill="none" xmlns="http://www.w3.org/2000/svg">
<g clip-path="url(#clip0_6_314)">
<path d="M97.8805 43.7209C96.3251 43.7209 95.0625 44.9802 95.0625 46.5379C95.0625 48.0944 96.3251 49.3559 97.8805 49.3559C99.4392 49.3559 100.699 48.0944 100.699 46.5379C100.699 44.9802 99.4392 43.7209 97.8805 43.7209Z" fill="white"/>
<path d="M46.6787 94.9216C45.12 94.9216 43.8607 96.1842 43.8607 97.7396C43.8607 99.2983 45.12 100.558 46.6787 100.558C48.2341 100.558 49.4967 99.2983 49.4967 97.7396C49.4967 96.1842 48.2341 94.9216 46.6787 94.9216Z" fill="white"/>
<path d="M140.917 17.3363C139.966 17.115 138.966 17.4023 138.279 18.0958L126.597 29.8709H120.996L114.83 23.483V17.8041L126.346 6.11707C127.027 5.42578 127.304 4.43177 127.079 3.4862C126.854 2.54173 126.159 1.77999 125.238 1.46957C122.345 0.494275 119.318 2.32082e-05 116.239 2.32082e-05C107.061 2.32082e-05 98.7226 4.27987 93.3618 11.7421C88.3445 18.7276 86.7979 27.2884 89.0137 35.4816L68.2563 56.239L33.6741 21.5776V14.7747C33.6741 13.7851 33.1545 12.8671 32.3058 12.3585L12.3805 0.401809C11.2709 -0.264165 9.85204 -0.0891401 8.93839 0.82561L0.968719 8.79418C0.055069 9.70893 -0.119955 11.1278 0.544918 12.2374L12.4994 32.1627C13.008 33.0114 13.9249 33.5299 14.9145 33.531L21.7152 33.5332L56.3007 68.1946L35.6225 88.8728C27.4293 86.658 18.8641 88.2068 11.8753 93.2275C4.41747 98.585 0.14093 106.921 0.14093 116.1C0.14093 119.177 0.635182 122.206 1.61048 125.097C1.922 126.023 2.69144 126.722 3.64252 126.942C4.5947 127.164 5.59311 126.876 6.2811 126.183L17.9626 114.409H23.5942L30.0107 120.825V126.457L18.2367 138.138C17.5432 138.826 17.2559 139.825 17.4772 140.777C17.6973 141.728 18.3963 142.497 19.3221 142.809C22.2138 143.784 25.2421 144.279 28.3199 144.279C37.4982 144.279 45.8333 140.001 51.1919 132.543C56.2126 125.554 57.7614 116.99 55.5466 108.797L72.1541 92.1895L75.9585 96.3218L74.2126 98.0666C73.1118 99.1673 73.1118 100.952 74.2126 102.052C75.3134 103.152 77.0967 103.152 78.1985 102.052L79.7793 100.472L115.473 139.244C115.5 139.272 115.527 139.3 115.555 139.327C122.159 145.932 132.86 145.934 139.468 139.326C146.057 132.734 146.057 122.006 139.468 115.414C139.439 115.385 139.41 115.358 139.38 115.33L100.548 79.7044L102.111 78.1413C103.212 77.0416 103.212 75.2572 102.111 74.1565C101.01 73.0557 99.2268 73.0557 98.1249 74.1565L96.3912 75.8913L92.2511 72.0914L108.939 55.4035C111.311 56.0376 113.759 56.359 116.239 56.359C131.778 56.359 144.418 43.7176 144.418 28.1801C144.418 25.1012 143.924 22.074 142.949 19.1812C142.637 18.2554 141.868 17.5564 140.917 17.3363ZM24.8788 28.7249C24.3504 28.1955 23.6338 27.9258 22.8853 27.9258L16.5118 27.9236L6.51006 11.2247L11.3678 6.36695L28.0381 16.3709V22.7444C28.0381 23.4907 28.3342 24.2062 28.8615 24.7346L64.2714 60.2249L60.2855 64.2098L24.8788 28.7249ZM96.5585 83.6936L135.523 119.439C139.875 123.838 139.862 130.96 135.482 135.342C131.092 139.732 123.986 139.745 119.578 135.381L83.7674 96.4825L96.5585 83.6936ZM92.4019 79.8794L79.9466 92.3326L76.1423 88.2002L88.2619 76.0795L92.4019 79.8794ZM116.239 50.723C113.775 50.723 111.351 50.3278 109.037 49.5485C108.023 49.2083 106.903 49.4703 106.145 50.2265C92.0178 64.354 61.5767 94.7939 50.3675 106.004C49.6101 106.762 49.347 107.882 49.6894 108.897C52.0318 115.853 50.9112 123.272 46.6138 129.255C42.3284 135.22 35.6599 138.643 28.3199 138.643C27.4954 138.643 26.6753 138.597 25.8629 138.51L34.8134 129.629C35.3462 129.101 35.6467 128.381 35.6467 127.629V119.657C35.6467 118.91 35.3495 118.193 34.8211 117.665L26.7535 109.597C26.2251 109.069 25.5085 108.772 24.761 108.772H16.7892C16.0373 108.772 15.3174 109.072 14.7879 109.605L5.90793 118.555C5.81987 117.743 5.77584 116.923 5.77584 116.098C5.77584 108.757 9.19707 102.09 15.1633 97.8046C21.145 93.5071 28.5653 92.3854 35.5223 94.729C36.5361 95.0713 37.6567 94.8082 38.4141 94.0509C38.5693 93.8968 94.1522 38.3128 94.1918 38.2731C94.9492 37.5158 95.2111 36.3963 94.8699 35.3814C92.5263 28.4255 93.6447 21.0085 97.9389 15.0301C102.228 9.05947 108.897 5.63603 116.238 5.63603C117.088 5.63603 117.932 5.68336 118.769 5.77583L110.005 14.6713C109.485 15.1985 109.194 15.9085 109.194 16.6483V24.6201C109.194 25.351 109.477 26.0522 109.985 26.5773L117.771 34.645C118.301 35.1954 119.033 35.5058 119.798 35.5058H127.77C128.521 35.5058 129.241 35.2064 129.77 34.6725L138.65 25.7231C138.738 26.5355 138.782 27.3556 138.782 28.1801C138.782 40.6101 128.669 50.723 116.239 50.723Z" fill="white"/>
<path d="M87.9184 52.515L52.6548 87.7786C51.5552 88.8783 51.5552 90.6627 52.6548 91.7635C53.7556 92.8642 55.54 92.8642 56.6408 91.7635L91.9044 56.4999C93.0051 55.4002 93.0051 53.6158 91.9044 52.515C90.8036 51.4143 89.0192 51.4143 87.9184 52.515Z" fill="white"/>
<path d="M123.529 127.374C124.63 128.471 126.414 128.471 127.515 127.367C128.613 126.265 128.61 124.481 127.508 123.382L102.108 98.0633C101.006 96.9648 99.2202 96.9681 98.1227 98.0699C97.023 99.1729 97.0263 100.956 98.1282 102.055L123.529 127.374Z" fill="white"/>
</g>
<defs>
<clipPath id="clip0_6_314">
<rect width="144" height="144.282" fill="white"/>
</clipPath>
</defs>
</svg>
