<svg width="318" height="318" viewBox="0 0 318 318" fill="none" xmlns="http://www.w3.org/2000/svg">
<g clip-path="url(#clip0_986_40)">
<path d="M152.374 225.251H165.626V318H152.374V225.251Z" fill="url(#paint0_linear_986_40)"/>
<path d="M59.625 198.75H258.375V211.999H59.625V198.75Z" fill="url(#paint1_linear_986_40)"/>
<path d="M284.876 112.624C266.609 112.624 251.749 97.7642 251.749 79.5002C251.749 61.2361 266.609 46.376 284.876 46.376C303.14 46.376 318 61.2361 318 79.5002C318 97.7642 303.14 112.624 284.876 112.624ZM284.876 59.6252C273.917 59.6252 265.001 68.5413 265.001 79.5002C265.001 90.4591 273.917 99.3752 284.876 99.3752C295.832 99.3752 304.751 90.4591 304.751 79.5002C304.751 68.5413 295.832 59.6252 284.876 59.6252Z" fill="url(#paint2_linear_986_40)"/>
<path d="M218.625 318C217.752 318 216.864 317.835 216.014 317.464C212.649 316.02 211.092 312.124 212.538 308.764L232.413 262.39C233.451 259.952 235.851 258.375 238.5 258.375H284.876C295.832 258.375 304.751 249.459 304.751 238.5V152.374C304.751 145.067 298.807 139.125 291.499 139.125H284.876C280.225 139.125 275.991 142.199 270.287 149.752C263.887 158.204 244.463 182.056 243.641 183.063C242.374 184.606 240.494 185.501 238.5 185.501H205.376C201.717 185.501 198.75 188.468 198.75 192.124V205.376C198.75 209.039 195.788 211.999 192.124 211.999C188.461 211.999 185.501 209.039 185.501 205.376V192.124C185.501 181.168 194.417 172.249 205.376 172.249H235.346C240.567 165.818 254.639 148.466 259.714 141.755C265.311 134.363 273.221 125.876 284.876 125.876H291.499C306.114 125.876 318 137.759 318 152.374V238.5C318 256.764 303.14 271.624 284.876 271.624H242.867L224.712 313.985C223.64 316.496 221.194 318 218.625 318Z" fill="url(#paint3_linear_986_40)"/>
<path d="M192.124 318C191.435 318 190.727 317.888 190.03 317.655C186.566 316.503 184.686 312.752 185.845 309.276L207.814 243.362C211.41 232.537 221.519 225.251 232.949 225.251H251.749V205.376C251.749 201.712 254.712 198.75 258.375 198.75C262.039 198.75 265.001 201.712 265.001 205.376V231.874C265.001 235.538 262.039 238.5 258.375 238.5H232.949C227.238 238.5 222.182 242.137 220.386 247.55L198.413 313.468C197.484 316.243 194.9 318 192.124 318Z" fill="url(#paint4_linear_986_40)"/>
<path d="M258.368 211.999C256.985 211.999 255.592 211.569 254.401 210.674C251.472 208.481 250.876 204.327 253.074 201.406L272.949 174.906C275.142 171.977 279.296 171.388 282.219 173.581C285.147 175.774 285.742 179.928 283.544 182.849L263.669 209.35C262.376 211.087 260.389 211.999 258.368 211.999Z" fill="url(#paint5_linear_986_40)"/>
<path d="M33.1242 112.624C14.8602 112.624 0 97.7642 0 79.5002C0 61.2361 14.8602 46.376 33.1242 46.376C51.3907 46.376 66.2508 61.2361 66.2508 79.5002C66.2508 97.7642 51.3907 112.624 33.1242 112.624ZM33.1242 59.6252C22.1677 59.6252 13.2492 68.5413 13.2492 79.5002C13.2492 90.4591 22.1677 99.3752 33.1242 99.3752C44.0831 99.3752 52.9992 90.4591 52.9992 79.5002C52.9992 68.5413 44.0831 59.6252 33.1242 59.6252Z" fill="url(#paint6_linear_986_40)"/>
<path d="M99.375 318C96.8057 318 94.3602 316.496 93.2878 313.985L75.1329 271.624H33.1242C14.8602 271.624 0 256.764 0 238.5V152.374C0 137.759 11.8857 125.876 26.5008 125.876H33.1242C44.7794 125.876 52.6959 134.363 58.2809 141.755C63.3613 148.466 77.4256 165.818 82.6467 172.249H112.624C123.583 172.249 132.499 181.168 132.499 192.124V205.376C132.499 209.039 129.532 211.999 125.876 211.999C122.217 211.999 119.25 209.039 119.25 205.376V192.124C119.25 188.468 116.276 185.501 112.624 185.501H79.5C77.5057 185.501 75.6254 184.606 74.3663 183.063C73.5438 182.056 54.1128 158.204 47.7199 149.744C42.0087 142.199 37.7824 139.125 33.1242 139.125H26.5008C19.1933 139.125 13.2492 145.067 13.2492 152.374V238.5C13.2492 249.459 22.1677 258.375 33.1242 258.375H79.5C82.1494 258.375 84.5488 259.952 85.5872 262.39L105.462 308.764C106.908 312.124 105.343 316.02 101.986 317.464C101.136 317.835 100.248 318 99.375 318Z" fill="url(#paint7_linear_986_40)"/>
<path d="M125.876 318C123.1 318 120.517 316.243 119.587 313.468L97.6185 247.557C95.8183 242.144 90.7623 238.5 85.0511 238.5H59.6251C55.9689 238.5 52.9993 235.538 52.9993 231.874V205.376C52.9993 201.712 55.9689 198.75 59.6251 198.75C63.2813 198.75 66.2509 201.712 66.2509 205.376V225.251H85.0511C96.4807 225.251 106.583 232.532 110.193 243.362L132.162 309.276C133.322 312.747 131.446 316.503 127.975 317.655C127.273 317.888 126.565 318 125.876 318Z" fill="url(#paint8_linear_986_40)"/>
<path d="M59.6322 212C57.6184 212 55.629 211.087 54.3237 209.35L34.4487 182.85C32.2506 179.928 32.8475 175.775 35.7758 173.582C38.7163 171.396 42.8626 171.978 45.051 174.906L64.926 201.407C67.1241 204.328 66.5273 208.482 63.5989 210.675C62.4077 211.57 61.0102 212 59.6322 212Z" fill="url(#paint9_linear_986_40)"/>
<path d="M125.876 145.751C125.019 145.751 124.158 145.583 123.338 145.246C120.866 144.22 119.25 141.801 119.25 139.125V112.624C119.25 108.968 122.217 106.001 125.876 106.001C129.532 106.001 132.499 108.968 132.499 112.624V123.132L147.692 107.942C148.929 106.695 150.62 106.001 152.374 106.001H218.625C222.281 106.001 225.251 103.026 225.251 99.375V19.875C225.251 16.2236 222.281 13.2492 218.625 13.2492H99.375C95.7236 13.2492 92.7492 16.2236 92.7492 19.875V99.375C92.7492 103.026 95.7236 106.001 99.375 106.001C103.031 106.001 106.001 108.968 106.001 112.624C106.001 116.283 103.031 119.25 99.375 119.25C88.4161 119.25 79.5 110.334 79.5 99.375V19.875C79.5 8.91609 88.4161 0 99.375 0H218.625C229.584 0 238.5 8.91609 238.5 19.875V99.375C238.5 110.334 229.584 119.25 218.625 119.25H155.118L130.558 143.81C129.294 145.074 127.598 145.751 125.876 145.751Z" fill="url(#paint10_linear_986_40)"/>
<path d="M178.875 52.999H192.124V66.2506H178.875V52.999Z" fill="url(#paint11_linear_986_40)"/>
<path d="M152.374 52.999H165.626V66.2506H152.374V52.999Z" fill="url(#paint12_linear_986_40)"/>
<path d="M125.876 52.999H139.125V66.2506H125.876V52.999Z" fill="url(#paint13_linear_986_40)"/>
</g>
<defs>
<linearGradient id="paint0_linear_986_40" x1="165.626" y1="225.251" x2="150.982" y2="225.471" gradientUnits="userSpaceOnUse">
<stop stop-color="#B62A7E"/>
<stop offset="1" stop-color="#D74A9E"/>
</linearGradient>
<linearGradient id="paint1_linear_986_40" x1="258.375" y1="198.75" x2="195.512" y2="298.036" gradientUnits="userSpaceOnUse">
<stop stop-color="#B62A7E"/>
<stop offset="1" stop-color="#D74A9E"/>
</linearGradient>
<linearGradient id="paint2_linear_986_40" x1="318" y1="46.376" x2="245.577" y2="54.0015" gradientUnits="userSpaceOnUse">
<stop stop-color="#B62A7E"/>
<stop offset="1" stop-color="#D74A9E"/>
</linearGradient>
<linearGradient id="paint3_linear_986_40" x1="318" y1="125.876" x2="172.318" y2="136.454" gradientUnits="userSpaceOnUse">
<stop stop-color="#B62A7E"/>
<stop offset="1" stop-color="#D74A9E"/>
</linearGradient>
<linearGradient id="paint4_linear_986_40" x1="265.001" y1="198.75" x2="177.563" y2="204.887" gradientUnits="userSpaceOnUse">
<stop stop-color="#B62A7E"/>
<stop offset="1" stop-color="#D74A9E"/>
</linearGradient>
<linearGradient id="paint5_linear_986_40" x1="284.871" y1="172.256" x2="248.54" y2="175.444" gradientUnits="userSpaceOnUse">
<stop stop-color="#B62A7E"/>
<stop offset="1" stop-color="#D74A9E"/>
</linearGradient>
<linearGradient id="paint6_linear_986_40" x1="66.2508" y1="46.376" x2="-6.17244" y2="54.0015" gradientUnits="userSpaceOnUse">
<stop stop-color="#B62A7E"/>
<stop offset="1" stop-color="#D74A9E"/>
</linearGradient>
<linearGradient id="paint7_linear_986_40" x1="132.499" y1="125.876" x2="-13.1823" y2="136.454" gradientUnits="userSpaceOnUse">
<stop stop-color="#B62A7E"/>
<stop offset="1" stop-color="#D74A9E"/>
</linearGradient>
<linearGradient id="paint8_linear_986_40" x1="132.505" y1="198.75" x2="45.0592" y2="204.888" gradientUnits="userSpaceOnUse">
<stop stop-color="#B62A7E"/>
<stop offset="1" stop-color="#D74A9E"/>
</linearGradient>
<linearGradient id="paint9_linear_986_40" x1="66.2522" y1="172.26" x2="29.9144" y2="175.449" gradientUnits="userSpaceOnUse">
<stop stop-color="#B62A7E"/>
<stop offset="1" stop-color="#D74A9E"/>
</linearGradient>
<linearGradient id="paint10_linear_986_40" x1="238.5" y1="0" x2="65.0476" y2="19.9223" gradientUnits="userSpaceOnUse">
<stop stop-color="#B62A7E"/>
<stop offset="1" stop-color="#D74A9E"/>
</linearGradient>
<linearGradient id="paint11_linear_986_40" x1="192.124" y1="52.999" x2="177.641" y2="54.5237" gradientUnits="userSpaceOnUse">
<stop stop-color="#B62A7E"/>
<stop offset="1" stop-color="#D74A9E"/>
</linearGradient>
<linearGradient id="paint12_linear_986_40" x1="165.626" y1="52.999" x2="151.14" y2="54.5242" gradientUnits="userSpaceOnUse">
<stop stop-color="#B62A7E"/>
<stop offset="1" stop-color="#D74A9E"/>
</linearGradient>
<linearGradient id="paint13_linear_986_40" x1="139.125" y1="52.999" x2="124.641" y2="54.5237" gradientUnits="userSpaceOnUse">
<stop stop-color="#B62A7E"/>
<stop offset="1" stop-color="#D74A9E"/>
</linearGradient>
<clipPath id="clip0_986_40">
<rect width="318" height="318" fill="white"/>
</clipPath>
</defs>
</svg>
