<svg width="318" height="318" viewBox="0 0 318 318" fill="none" xmlns="http://www.w3.org/2000/svg">
<path d="M159 140.367C102.492 140.367 56.5195 186.34 56.5195 242.848C56.5195 268.532 77.4175 289.43 103.102 289.43H214.898C240.583 289.43 261.48 268.532 261.48 242.848C261.48 186.34 215.508 140.367 159 140.367ZM186.949 233.531H168.316V252.164H149.684V233.531H131.051V214.898H149.684V196.266H168.316V214.898H186.949V233.531Z" fill="url(#paint0_linear_986_3)"/>
<path d="M37.2656 186.949C16.713 186.949 0 166.051 0 140.367C0 114.683 16.713 93.7852 37.2656 93.7852C57.8182 93.7852 74.5312 114.683 74.5312 140.367C74.5312 166.051 57.8182 186.949 37.2656 186.949Z" fill="url(#paint1_linear_986_3)"/>
<path d="M112.418 121.734C91.8654 121.734 75.1523 100.836 75.1523 75.1523C75.1523 49.4683 91.8654 28.5703 112.418 28.5703C132.971 28.5703 149.684 49.4683 149.684 75.1523C149.684 100.836 132.971 121.734 112.418 121.734Z" fill="url(#paint2_linear_986_3)"/>
<path d="M205.582 121.734C185.029 121.734 168.316 100.836 168.316 75.1523C168.316 49.4683 185.029 28.5703 205.582 28.5703C226.135 28.5703 242.848 49.4683 242.848 75.1523C242.848 100.836 226.135 121.734 205.582 121.734Z" fill="url(#paint3_linear_986_3)"/>
<path d="M280.734 186.949C260.182 186.949 243.469 166.051 243.469 140.367C243.469 114.683 260.182 93.7852 280.734 93.7852C301.287 93.7852 318 114.683 318 140.367C318 166.051 301.287 186.949 280.734 186.949Z" fill="url(#paint4_linear_986_3)"/>
<defs>
<linearGradient id="paint0_linear_986_3" x1="56.5195" y1="244.074" x2="271.658" y2="200.935" gradientUnits="userSpaceOnUse">
<stop stop-color="#D54B9E"/>
<stop offset="1" stop-color="#B62A7E"/>
</linearGradient>
<linearGradient id="paint1_linear_986_3" x1="2.62492e-07" y1="158.602" x2="80.2848" y2="149.236" gradientUnits="userSpaceOnUse">
<stop stop-color="#D54B9E"/>
<stop offset="1" stop-color="#B62A7E"/>
</linearGradient>
<linearGradient id="paint2_linear_986_3" x1="75.1523" y1="93.3873" x2="155.437" y2="84.0208" gradientUnits="userSpaceOnUse">
<stop stop-color="#D54B9E"/>
<stop offset="1" stop-color="#B62A7E"/>
</linearGradient>
<linearGradient id="paint3_linear_986_3" x1="168.316" y1="93.3873" x2="248.601" y2="84.0208" gradientUnits="userSpaceOnUse">
<stop stop-color="#D54B9E"/>
<stop offset="1" stop-color="#B62A7E"/>
</linearGradient>
<linearGradient id="paint4_linear_986_3" x1="243.469" y1="158.602" x2="323.754" y2="149.236" gradientUnits="userSpaceOnUse">
<stop stop-color="#D54B9E"/>
<stop offset="1" stop-color="#B62A7E"/>
</linearGradient>
</defs>
</svg>
