<svg width="318" height="317" viewBox="0 0 318 317" fill="none" xmlns="http://www.w3.org/2000/svg">
<path d="M108.975 63.0666C99.2758 66.7189 92.3262 75.9934 92.3262 86.923C92.3262 91.1321 93.4507 95.0491 95.2664 98.5567C87.5729 101.505 82.0684 108.9 82.0684 117.6C82.0684 126.303 87.5729 133.695 95.2664 136.646C93.4507 140.153 92.3262 144.07 92.3262 148.277C92.3262 159.209 99.2758 168.483 108.975 172.133C108.206 174.275 107.713 176.552 107.713 178.954C107.713 190.233 116.914 199.405 128.229 199.405C130.783 199.405 133.205 198.878 135.461 198.029C138.785 204.867 145.754 209.63 153.873 209.63C165.188 209.63 174.389 200.458 174.389 189.179V46.0206C174.389 34.7439 165.188 25.5693 153.873 25.5693C145.754 25.5693 138.785 30.3351 135.461 37.1705C133.205 36.3217 130.783 35.7949 128.229 35.7949C116.914 35.7949 107.713 44.9695 107.713 56.2462C107.713 58.6503 108.206 60.9246 108.975 63.0666ZM128.229 46.0206C133.886 46.0206 138.487 50.6066 138.487 56.2462H148.745C148.745 51.3331 146.924 46.8744 144.016 43.3468C145.206 39.0129 149.15 35.7949 153.873 35.7949C159.531 35.7949 164.131 40.381 164.131 46.0206V189.179C164.131 194.819 159.531 199.405 153.873 199.405C149.15 199.405 145.206 196.189 144.016 191.853C146.924 188.325 148.745 183.869 148.745 178.954H138.487C138.487 184.593 133.886 189.179 128.229 189.179C122.571 189.179 117.971 184.593 117.971 178.954C117.971 173.314 122.571 168.728 128.229 168.728V158.502C123.233 158.502 118.71 160.365 115.151 163.331C108.011 162.005 102.584 155.774 102.584 148.277C102.584 139.821 109.489 132.938 117.971 132.938C126.456 132.938 133.358 139.821 133.358 148.277H143.616C143.616 134.182 132.113 122.713 117.971 122.713C112.176 122.713 106.882 124.712 102.584 127.96V127.825C96.9267 127.825 92.3262 123.239 92.3262 117.6C92.3262 111.96 96.9267 107.374 102.584 107.374V107.242C106.882 110.49 112.176 112.487 117.971 112.487C132.113 112.487 143.616 101.021 143.616 86.923H133.358C133.358 95.3811 126.456 102.261 117.971 102.261C109.489 102.261 102.584 95.3811 102.584 86.923C102.584 79.4286 108.011 73.1973 115.151 71.8717C118.71 74.8375 123.233 76.6974 128.229 76.6974V66.4718C122.571 66.4718 117.971 61.8857 117.971 56.2462C117.971 50.6066 122.571 46.0206 128.229 46.0206Z" fill="url(#paint0_linear_986_55)"/>
<path d="M230.808 35.7949C228.253 35.7949 225.834 36.3217 223.578 37.1705C220.252 30.3351 213.282 25.5693 205.163 25.5693C193.848 25.5693 184.647 34.7439 184.647 46.0206V189.179C184.647 200.458 193.848 209.63 205.163 209.63C213.282 209.63 220.252 204.867 223.578 198.029C225.834 198.878 228.253 199.405 230.808 199.405C242.122 199.405 251.323 190.233 251.323 178.954C251.323 176.552 250.833 174.275 250.061 172.133C259.761 168.483 266.71 159.209 266.71 148.277C266.71 144.07 265.588 140.153 263.773 136.646C271.466 133.695 276.968 126.303 276.968 117.6C276.968 108.9 271.466 101.505 263.773 98.5567C265.588 95.0491 266.71 91.1321 266.71 86.923C266.71 75.9934 259.761 66.7189 250.061 63.0666C250.833 60.9246 251.323 58.6503 251.323 56.2462C251.323 44.9695 242.122 35.7949 230.808 35.7949ZM256.452 86.923C256.452 95.3811 249.55 102.261 241.066 102.261C232.583 102.261 225.679 95.3811 225.679 86.923H215.421C215.421 101.021 226.926 112.487 241.066 112.487C246.861 112.487 252.155 110.49 256.452 107.242V107.374C262.11 107.374 266.71 111.96 266.71 117.6C266.71 123.239 262.11 127.825 256.452 127.825V127.96C252.155 124.712 246.861 122.713 241.066 122.713C226.926 122.713 215.421 134.182 215.421 148.277H225.679C225.679 139.821 232.583 132.938 241.066 132.938C249.55 132.938 256.452 139.821 256.452 148.277C256.452 155.774 251.025 162.005 243.888 163.331C240.327 160.365 235.804 158.502 230.808 158.502V168.728C236.465 168.728 241.066 173.314 241.066 178.954C241.066 184.593 236.465 189.179 230.808 189.179C225.15 189.179 220.55 184.593 220.55 178.954H210.292C210.292 183.869 212.113 188.325 215.02 191.853C213.831 196.189 209.886 199.405 205.163 199.405C199.506 199.405 194.905 194.819 194.905 189.179V46.0206C194.905 40.381 199.506 35.7949 205.163 35.7949C209.886 35.7949 213.831 39.0129 215.02 43.3468C212.113 46.8744 210.292 51.3331 210.292 56.2462H220.55C220.55 50.6066 225.15 46.0206 230.808 46.0206C236.465 46.0206 241.066 50.6066 241.066 56.2462C241.066 61.8857 236.465 66.4718 230.808 66.4718V76.6974C235.804 76.6974 240.327 74.8375 243.888 71.8717C251.025 73.1973 256.452 79.4286 256.452 86.923Z" fill="url(#paint1_linear_986_55)"/>
<path d="M260.284 31.8904C236.317 9.43453 204.928 -1.82464 171.985 0.242456L172.621 10.4456C202.721 8.58073 231.371 18.8413 253.262 39.34C275.162 59.8561 287.226 87.6545 287.226 117.6C287.226 153.687 269.182 187.15 238.957 207.116C228.531 214.007 220.642 223.835 215.781 235.194H143.042C138.114 223.753 130.195 213.854 119.752 206.902C88.6024 186.148 70.7037 151.49 71.8683 114.175L61.6154 113.858C60.3382 154.72 79.9448 192.682 114.054 215.4C121.587 220.42 127.603 227.256 131.795 235.194H117.971V245.42H135.887C136.882 248.733 137.678 252.128 138.081 255.646H128.229V265.871H138.487V281.21C138.487 284.038 140.786 286.323 143.616 286.323H148.745C148.745 303.241 162.546 316.999 179.518 316.999C196.49 316.999 210.292 303.241 210.292 286.323H215.421C218.253 286.323 220.55 284.038 220.55 281.21V265.871H230.808V255.646H220.91C221.274 252.133 221.997 248.728 222.972 245.42H241.066V235.194H227.019C231.151 227.343 237.131 220.592 244.627 215.644C277.722 193.765 297.484 157.117 297.484 117.6C297.484 85.2778 283.923 54.0343 260.284 31.8904ZM179.518 306.774C168.204 306.774 159.003 297.602 159.003 286.323H200.034C200.034 297.602 190.833 306.774 179.518 306.774ZM210.292 276.097H148.745V265.871H210.292V276.097ZM210.658 255.646H148.334C147.991 252.166 147.437 248.745 146.596 245.42H212.253C211.436 248.74 210.963 252.176 210.658 255.646Z" fill="url(#paint2_linear_986_55)"/>
<path d="M56.4239 35.7945C67.7386 35.7945 76.9396 44.9691 76.9396 56.2458C76.9396 59.0743 79.2386 61.3586 82.0685 61.3586C84.901 61.3586 87.1975 59.0743 87.1975 56.2458C87.1975 44.9691 96.3985 35.7945 107.713 35.7945C110.546 35.7945 112.842 33.5102 112.842 30.6817C112.842 27.8557 110.546 25.5689 107.713 25.5689C96.3985 25.5689 87.1975 16.3968 87.1975 5.11769C87.1975 2.29167 84.901 0.00488281 82.0685 0.00488281C79.2386 0.00488281 76.9396 2.29167 76.9396 5.11769C76.9396 16.3968 67.7386 25.5689 56.4239 25.5689C53.5939 25.5689 51.2949 27.8557 51.2949 30.6817C51.2949 33.5102 53.5939 35.7945 56.4239 35.7945ZM82.0685 22.0564C84.3475 25.4716 87.2951 28.4124 90.7211 30.6817C87.2951 32.9535 84.3475 35.8919 82.0685 39.3071C79.7921 35.8919 76.8419 32.9535 73.416 30.6817C76.8419 28.4124 79.7921 25.4716 82.0685 22.0564Z" fill="url(#paint3_linear_986_55)"/>
<path d="M76.9395 86.9225C79.772 86.9225 82.0685 84.6382 82.0685 81.8097C82.0685 78.9836 79.772 76.6968 76.9395 76.6968C65.6248 76.6968 56.4238 67.5248 56.4238 56.2456C56.4238 53.4196 54.1273 51.1328 51.2949 51.1328C48.4649 51.1328 46.1659 53.4196 46.1659 56.2456C46.1659 67.5248 36.9649 76.6968 25.6502 76.6968C22.8202 76.6968 20.5212 78.9836 20.5212 81.8097C20.5212 84.6382 22.8202 86.9225 25.6502 86.9225C36.9649 86.9225 46.1659 96.0971 46.1659 107.374C46.1659 110.202 48.4649 112.486 51.2949 112.486C54.1273 112.486 56.4238 110.202 56.4238 107.374C56.4238 96.0971 65.6248 86.9225 76.9395 86.9225ZM51.2949 90.435C49.0184 87.0198 46.0682 84.0815 42.6423 81.8097C46.0682 79.5403 49.0134 76.5995 51.2949 73.1843C53.5738 76.5995 56.5215 79.5354 59.9474 81.8097C56.5215 84.0815 53.5738 87.0198 51.2949 90.435Z" fill="url(#paint4_linear_986_55)"/>
<defs>
<linearGradient id="paint0_linear_986_55" x1="174.389" y1="25.5693" x2="72.632" y2="30.9431" gradientUnits="userSpaceOnUse">
<stop stop-color="#B62A7E"/>
<stop offset="1" stop-color="#D74A9E"/>
</linearGradient>
<linearGradient id="paint1_linear_986_55" x1="276.968" y1="25.5693" x2="175.211" y2="30.9431" gradientUnits="userSpaceOnUse">
<stop stop-color="#B62A7E"/>
<stop offset="1" stop-color="#D74A9E"/>
</linearGradient>
<linearGradient id="paint2_linear_986_55" x1="297.484" y1="0.000976562" x2="38.308" y2="20.31" gradientUnits="userSpaceOnUse">
<stop stop-color="#B62A7E"/>
<stop offset="1" stop-color="#D74A9E"/>
</linearGradient>
<linearGradient id="paint3_linear_986_55" x1="112.842" y1="0.00488281" x2="45.5653" y2="7.11059" gradientUnits="userSpaceOnUse">
<stop stop-color="#B62A7E"/>
<stop offset="1" stop-color="#D74A9E"/>
</linearGradient>
<linearGradient id="paint4_linear_986_55" x1="82.0685" y1="51.1328" x2="14.7916" y2="58.2385" gradientUnits="userSpaceOnUse">
<stop stop-color="#B62A7E"/>
<stop offset="1" stop-color="#D74A9E"/>
</linearGradient>
</defs>
</svg>
