<svg width="99" height="99" viewBox="0 0 99 99" fill="none" xmlns="http://www.w3.org/2000/svg">
<path d="M96.1456 42.984L89.4589 35.2156C88.1806 33.7406 87.1481 30.9873 87.1481 29.0206V20.6623C87.1481 15.4506 82.8706 11.1731 77.6589 11.1731H69.3006C67.3831 11.1731 64.5806 10.1406 63.1056 8.86229L55.3373 2.17562C51.9448 -0.725208 46.3889 -0.725208 42.9473 2.17562L35.2279 8.91146C33.7529 10.1406 30.9504 11.1731 29.0329 11.1731H20.5271C15.3154 11.1731 11.0379 15.4506 11.0379 20.6623V29.0698C11.0379 30.9873 10.0054 33.7406 8.77625 35.2156L2.13875 43.0332C-0.712917 46.4257 -0.712917 51.9323 2.13875 55.3248L8.77625 63.1423C10.0054 64.6173 11.0379 67.3707 11.0379 69.2882V77.6957C11.0379 82.9073 15.3154 87.1848 20.5271 87.1848H29.0329C30.9504 87.1848 33.7529 88.2173 35.2279 89.4957L42.9964 96.1823C46.3889 99.0832 51.9448 99.0832 55.3864 96.1823L63.1548 89.4957C64.6298 88.2173 67.3831 87.1848 69.3498 87.1848H77.7081C82.9198 87.1848 87.1973 82.9073 87.1973 77.6957V69.3373C87.1973 67.4198 88.2298 64.6173 89.5081 63.1423L96.1948 55.374C99.0464 51.9815 99.0464 46.3765 96.1456 42.984ZM69.5956 39.8865L45.8481 63.634C45.1598 64.3223 44.2256 64.7157 43.2423 64.7157C42.2589 64.7157 41.3248 64.3223 40.6364 63.634L28.7379 51.7357C27.3121 50.3098 27.3121 47.9498 28.7379 46.524C30.1638 45.0982 32.5238 45.0982 33.9496 46.524L43.2423 55.8165L64.3839 34.6748C65.8098 33.249 68.1698 33.249 69.5956 34.6748C71.0214 36.1006 71.0214 38.4606 69.5956 39.8865Z" fill="url(#paint0_linear_984_2)"/>
<defs>
<linearGradient id="paint0_linear_984_2" x1="98" y1="98" x2="86.7424" y2="-9.11638" gradientUnits="userSpaceOnUse">
<stop stop-color="#B62A7E"/>
<stop offset="1" stop-color="#D74A9E"/>
</linearGradient>
</defs>
</svg>
