<svg width="318" height="317" viewBox="0 0 318 317" fill="none" xmlns="http://www.w3.org/2000/svg">
<g clip-path="url(#clip0_986_33)">
<path d="M159.002 4.93652C93.2014 4.93652 39.7598 58.2467 39.7598 123.841C39.7598 189.435 93.2014 242.708 159.002 242.708C224.803 242.708 278.245 189.435 278.245 123.841C278.245 58.2467 224.803 4.93652 159.002 4.93652ZM159.002 14.8452C219.433 14.8452 268.305 63.6004 268.305 123.841C268.305 184.081 219.433 232.8 159.002 232.8C98.572 232.8 49.6997 184.081 49.6997 123.841C49.6997 63.6004 98.572 14.8452 159.002 14.8452Z" fill="url(#paint0_linear_986_33)"/>
<path d="M159.002 34.6621C109.666 34.6621 69.5796 74.6594 69.5796 123.84C69.5796 173.021 109.666 212.982 159.002 212.982C208.338 212.982 248.425 173.021 248.425 123.84C248.425 74.6594 208.338 34.6621 159.002 34.6621ZM159.002 44.5708C202.968 44.5708 238.485 80.0131 238.485 123.84C238.485 167.667 202.968 203.073 159.002 203.073C115.037 203.073 79.4829 167.667 79.4829 123.84C79.4829 80.0131 115.037 44.5708 159.002 44.5708Z" fill="url(#paint1_linear_986_33)"/>
<path d="M65.0681 191.922L18.4127 272.471C17.941 273.296 17.7171 274.238 17.7675 275.187C17.8179 276.135 18.1405 277.048 18.697 277.819C19.2535 278.589 20.0204 279.184 20.9064 279.533C21.7924 279.881 22.7602 279.968 23.6945 279.784L71.2301 270.424L86.8553 316.164C87.1611 317.069 87.7228 317.867 88.4726 318.461C89.2225 319.055 90.1287 319.42 91.082 319.513C92.0354 319.606 92.9953 319.422 93.8462 318.983C94.6971 318.545 95.4028 317.871 95.8783 317.042L141.58 238.138L132.96 233.165L92.7239 302.599L79.2261 263.111C78.8368 261.98 78.0506 261.028 77.0126 260.43C75.9745 259.832 74.7545 259.629 73.5776 259.857L32.4974 267.937L73.6509 196.895L65.0681 191.922Z" fill="url(#paint2_linear_986_33)"/>
<path d="M252.937 191.922L244.354 196.894L285.507 267.937L244.427 259.857C243.25 259.629 242.03 259.832 240.992 260.43C239.954 261.028 239.168 261.98 238.779 263.111L225.281 302.599L185.044 233.165L176.425 238.138L222.127 317.042C222.602 317.871 223.308 318.545 224.159 318.984C225.01 319.422 225.969 319.606 226.923 319.513C227.876 319.42 228.782 319.055 229.532 318.461C230.282 317.867 230.844 317.069 231.15 316.164L246.775 270.424L294.31 279.784C295.245 279.968 296.212 279.881 297.098 279.533C297.984 279.184 298.751 278.589 299.308 277.819C299.864 277.048 300.187 276.135 300.237 275.187C300.288 274.239 300.064 273.296 299.592 272.471L252.937 191.922Z" fill="url(#paint3_linear_986_33)"/>
<path d="M159.002 68.667C155.477 68.667 154.876 70.2051 153.941 71.1533C148.511 77.4101 141.207 90.292 138.499 94.5539C129.363 96.832 119.66 98.7142 111.43 101.94C110.237 102.533 108.595 102.656 107.505 105.998C106.416 109.34 107.66 110.377 108.276 111.556C112.278 118.239 123.654 130.797 125.845 133.421C125.289 143.394 123.911 152.381 124.524 161.355C124.722 162.67 124.313 164.262 127.165 166.328C130.017 168.393 131.425 167.534 132.74 167.315C140.564 165.427 154.611 159.185 159.002 157.443C167.816 160.783 176.579 165.085 185.264 167.315C186.58 167.534 187.987 168.393 190.84 166.328C193.692 164.262 193.283 162.67 193.48 161.355C194.146 153.627 192.388 136.814 192.16 133.421C197.238 127.501 202.674 121.156 207.455 115.066C210.186 112.11 211.298 108.97 210.499 105.998C209.7 103.025 207.768 102.533 206.575 101.94C197.801 98.4738 188.502 96.8175 179.506 94.554C174.332 86.6815 169.79 78.0478 164.064 71.1533C163.129 70.2051 162.528 68.667 159.002 68.667ZM159.002 80.6964C163.367 87.0468 167.026 93.5033 171.18 99.819C171.85 100.761 172.084 101.41 173.674 102.561C175.264 103.713 175.906 103.716 177.012 104.06C184.441 106.038 191.691 107.646 199.019 109.691C194.363 115.832 189.29 121.266 184.568 127.168C183.876 128.095 183.341 128.486 182.734 130.349C182.126 132.213 182.317 132.851 182.33 134.006C182.699 141.678 183.414 149.048 183.761 156.639C175.51 153.792 166.698 149.178 159.002 147.534C157.037 147.534 156.505 147.933 155.408 148.302C148.203 151.015 141.376 153.969 134.244 156.639C134.487 148.931 135.324 141.565 135.675 134.006C135.688 132.851 135.879 132.213 135.271 130.349C134.664 128.486 134.129 128.095 133.437 127.168C128.724 121.25 123.14 114.964 118.986 109.691C126.389 107.509 133.681 106.023 140.993 104.06C142.099 103.716 142.741 103.713 144.331 102.561C145.921 101.41 146.155 100.761 146.825 99.819C149.445 95.9693 152.002 91.6563 154.234 88.009C155.945 85.2358 157.61 82.6526 159.002 80.6964Z" fill="url(#paint4_linear_986_33)"/>
</g>
<defs>
<linearGradient id="paint0_linear_986_33" x1="278.245" y1="4.93652" x2="17.5576" y2="32.4658" gradientUnits="userSpaceOnUse">
<stop stop-color="#B62A7E"/>
<stop offset="1" stop-color="#D74A9E"/>
</linearGradient>
<linearGradient id="paint1_linear_986_33" x1="248.425" y1="34.6621" x2="52.9294" y2="55.3059" gradientUnits="userSpaceOnUse">
<stop stop-color="#B62A7E"/>
<stop offset="1" stop-color="#D74A9E"/>
</linearGradient>
<linearGradient id="paint2_linear_986_33" x1="141.58" y1="191.922" x2="6.13739" y2="205.758" gradientUnits="userSpaceOnUse">
<stop stop-color="#B62A7E"/>
<stop offset="1" stop-color="#D74A9E"/>
</linearGradient>
<linearGradient id="paint3_linear_986_33" x1="300.244" y1="191.922" x2="164.802" y2="205.758" gradientUnits="userSpaceOnUse">
<stop stop-color="#B62A7E"/>
<stop offset="1" stop-color="#D74A9E"/>
</linearGradient>
<linearGradient id="paint4_linear_986_33" x1="210.752" y1="68.667" x2="97.5342" y2="81.1491" gradientUnits="userSpaceOnUse">
<stop stop-color="#B62A7E"/>
<stop offset="1" stop-color="#D74A9E"/>
</linearGradient>
<clipPath id="clip0_986_33">
<rect width="318" height="317" fill="white"/>
</clipPath>
</defs>
</svg>
